<?xml version="1.0" standalone="no"?>
<!DOCTYPE svg PUBLIC "-//W3C//DTD SVG 20010904//EN"
 "http://www.w3.org/TR/2001/REC-SVG-20010904/DTD/svg10.dtd">
<svg version="1.0" xmlns="http://www.w3.org/2000/svg"
 width="17970.000000pt" height="7800.000000pt" viewBox="0 0 17970.000000 7800.000000"
 preserveAspectRatio="xMidYMid meet">

<g transform="translate(0.000000,7800.000000) scale(0.100000,-0.100000)"
fill="#000000" stroke="none">
<path d="M0 39000 l0 -39000 89850 0 89850 0 0 39000 0 39000 -89850 0 -89850
0 0 -39000z m67570 36296 c4312 7 46436 1 46475 -7 143 -27 242 -39 412 -49
210 -12 343 -30 450 -60 40 -11 101 -20 135 -20 35 0 104 -11 156 -25 50 -13
122 -29 160 -35 37 -6 90 -17 117 -25 28 -7 70 -19 95 -25 25 -6 81 -22 125
-35 44 -13 105 -30 136 -39 34 -10 94 -16 156 -16 132 0 179 -15 233 -74 74
-80 108 -129 129 -186 23 -60 20 -58 136 -129 44 -27 98 -63 120 -79 43 -31
188 -82 234 -82 32 0 197 -42 226 -57 32 -18 125 -105 125 -118 0 -25 148
-141 238 -186 52 -26 68 -41 98 -89 29 -47 45 -62 102 -91 37 -19 69 -37 72
-40 3 -3 35 -22 73 -43 63 -35 177 -135 177 -155 0 -6 10 -21 23 -35 26 -30
56 -73 100 -141 18 -28 44 -67 60 -86 15 -20 27 -41 27 -46 0 -6 7 -16 14 -23
8 -6 22 -33 32 -58 9 -26 23 -66 32 -89 11 -33 25 -48 60 -68 25 -14 56 -28
70 -32 46 -11 244 -228 327 -358 38 -59 95 -211 95 -253 0 -32 68 -250 81
-257 5 -4 15 -21 23 -38 7 -18 26 -44 42 -60 99 -95 127 -116 173 -132 58 -19
88 -51 97 -104 4 -20 10 -41 15 -47 5 -6 13 -42 18 -80 6 -38 19 -98 31 -133
11 -35 20 -69 20 -76 0 -7 10 -27 23 -46 35 -52 68 -152 77 -237 5 -42 16
-102 25 -132 9 -30 24 -91 34 -135 17 -74 42 -145 77 -220 11 -22 15 -89 18
-250 4 -236 19 -506 36 -638 7 -55 10 -4781 10 -14585 0 -11751 -2 -14508 -12
-14529 -7 -14 -28 -34 -45 -43 -18 -10 -39 -22 -46 -29 -10 -8 -7731 -11
-29261 -11 l-29247 0 -40 27 c-52 34 -67 65 -79 160 -7 50 -9 5141 -8 14458 1
11750 4 14405 14 14515 8 74 18 214 23 310 14 235 46 492 76 595 21 74 45 196
45 229 0 40 29 196 52 281 39 142 54 191 67 214 11 20 26 90 61 284 5 26 18
59 29 74 12 14 21 31 21 39 0 26 56 78 109 101 52 23 70 40 97 88 6 11 33 58
59 105 26 47 55 96 65 110 22 33 70 173 70 208 0 37 33 160 53 199 10 18 41
55 70 82 28 28 97 95 153 148 68 67 119 107 160 127 78 37 118 83 145 165 21
65 29 82 79 167 82 140 187 263 319 369 34 28 81 66 104 85 43 36 73 53 117
66 45 13 89 49 106 87 10 22 38 53 65 73 27 19 62 52 78 72 16 20 50 53 76 72
25 19 66 54 92 78 25 23 50 42 55 42 5 0 41 23 80 50 39 28 75 50 80 50 5 0
21 9 37 21 15 11 59 27 97 36 38 8 76 21 84 27 8 7 31 19 50 26 19 7 42 19 50
25 33 25 89 53 142 70 54 17 58 20 87 79 36 71 78 119 124 140 56 26 150 58
209 71 31 7 72 20 90 30 53 27 174 63 236 70 84 10 140 29 276 96 62 31 171
49 292 49 56 0 86 6 219 45 31 9 140 19 285 25 129 6 262 17 295 25 234 55
372 72 590 74 87 1 161 4 164 6 2 3 23 1 45 -3 23 -4 349 -7 726 -6z m16690
-37207 c173 -21 201 -65 199 -311 -1 -128 2 -164 21 -218 5 -14 14 -44 20 -68
9 -34 30 -62 99 -131 79 -80 90 -95 105 -152 11 -39 29 -74 48 -93 16 -17 39
-50 49 -73 11 -23 23 -43 27 -45 4 -2 21 -24 37 -50 83 -132 101 -158 107
-158 23 0 215 -138 272 -196 28 -28 70 -64 94 -79 24 -16 59 -53 79 -82 19
-29 43 -58 53 -63 50 -27 118 -42 235 -51 100 -8 155 -19 235 -45 89 -28 121
-34 210 -35 267 -5 8144 11 8210 16 41 3 89 10 105 15 17 4 66 16 110 25 44 9
129 28 188 42 l108 26 47 55 c93 110 116 130 157 137 22 3 84 20 138 37 102
32 120 45 187 128 19 24 52 62 72 84 48 54 62 71 128 157 30 39 78 96 105 125
60 63 65 69 88 116 11 19 38 50 61 67 65 49 92 107 106 226 24 203 36 261 72
345 6 14 24 61 42 105 31 79 32 80 96 115 l65 35 14830 3 c8898 1 14861 -1
14907 -7 91 -10 155 -40 186 -85 19 -28 24 -53 31 -162 6 -91 16 -147 31 -189
59 -160 68 -215 80 -488 7 -144 9 -300 5 -347 -3 -47 -8 -233 -11 -414 -5
-354 -8 -379 -69 -555 -15 -41 -29 -97 -31 -125 -3 -28 -12 -80 -19 -116 -8
-36 -23 -108 -34 -160 -47 -234 -63 -268 -137 -300 -65 -28 -97 -80 -128 -206
-15 -62 -60 -156 -109 -228 -15 -21 -27 -44 -27 -50 0 -20 -83 -210 -105 -241
-24 -33 -65 -156 -85 -250 -7 -33 -16 -65 -21 -71 -5 -6 -15 -27 -22 -46 -27
-77 -169 -230 -235 -253 -50 -18 -104 -44 -112 -55 -3 -3 -31 -25 -62 -48 -31
-23 -69 -59 -85 -79 -15 -21 -46 -59 -69 -84 -23 -25 -45 -61 -49 -80 -9 -39
-51 -110 -73 -123 -8 -5 -40 -33 -69 -62 -93 -91 -219 -164 -283 -164 -11 0
-72 -27 -135 -60 -63 -33 -121 -60 -129 -60 -18 0 -102 -37 -118 -53 -37 -35
-136 -111 -153 -118 -20 -8 -167 -52 -240 -72 -22 -6 -47 -17 -56 -24 -8 -7
-20 -13 -26 -13 -6 0 -40 -20 -76 -44 -67 -45 -117 -63 -252 -92 -75 -16
-2135 -17 -32975 -17 -18092 0 -32926 3 -32965 7 -84 9 -220 41 -256 61 -15 8
-53 21 -85 30 -47 12 -67 24 -99 58 -46 49 -108 82 -181 96 -27 5 -70 17 -95
26 -24 9 -57 20 -74 25 -16 4 -43 13 -60 19 -16 5 -62 14 -101 19 -52 7 -77
16 -96 33 -14 13 -48 45 -75 71 -57 55 -125 81 -260 99 -83 11 -135 31 -218
85 -76 48 -163 172 -196 279 -12 41 -30 72 -54 95 -19 19 -35 39 -35 45 0 19
-63 82 -100 100 -19 10 -51 31 -70 46 -20 16 -60 36 -90 45 -54 15 -88 45
-216 186 -28 30 -80 142 -105 226 -21 67 -73 171 -115 227 -12 17 -25 41 -29
55 -9 30 -55 123 -64 130 -4 3 -15 21 -25 40 -10 19 -25 48 -34 65 -9 17 -19
74 -24 135 -13 157 -42 268 -80 307 -17 17 -43 37 -58 43 -47 19 -101 96 -131
185 -26 77 -40 150 -59 312 -5 39 -21 105 -35 145 -57 158 -58 162 -66 533 -4
193 -11 409 -14 482 -9 151 6 347 37 498 11 55 24 119 29 143 5 24 12 48 16
55 11 19 32 187 33 265 0 173 53 242 200 262 90 12 29702 12 29800 -1z m61433
-16514 c55 -8 1229 -7 1377 1 116 6 129 5 168 -15 48 -24 65 -47 89 -117 15
-44 17 -130 18 -909 1 -473 0 -885 -2 -915 -5 -49 -11 -61 -57 -113 -51 -57
-51 -58 -106 -57 -30 0 -438 1 -906 3 -795 2 -853 3 -871 20 -11 9 -23 17 -28
17 -4 0 -30 17 -57 37 -33 26 -51 48 -58 73 -6 22 -10 366 -10 905 0 909 2
946 43 1009 35 53 236 84 400 61z m-122197 -20 c33 -21 51 -66 64 -155 7 -47
10 -2437 10 -7033 0 -4904 3 -6996 11 -7077 14 -147 24 -192 54 -240 30 -48
61 -58 205 -71 58 -5 130 -13 160 -18 98 -16 167 -29 207 -40 37 -9 143 -24
268 -37 33 -3 63 -8 67 -10 18 -11 225 -34 310 -34 53 0 109 -5 125 -11 15 -5
76 -19 135 -29 124 -22 158 -38 198 -98 39 -59 42 -110 38 -682 -4 -458 -4
-477 -25 -521 -25 -55 -24 -54 -99 -74 -52 -13 -347 -15 -2556 -15 -2444 0
-2499 0 -2595 20 -54 11 -114 24 -134 30 -88 25 -98 70 -104 470 -3 173 -8
407 -11 520 l-7 205 25 50 c47 91 64 97 273 100 127 1 146 4 200 27 107 47
162 57 345 63 96 3 220 12 275 20 55 9 143 20 195 25 194 19 216 22 280 42
100 31 107 36 147 112 l37 71 5 335 c6 412 6 -378 3 6311 -2 3133 0 5708 4
5722 3 15 1 58 -6 96 -12 74 -51 146 -94 174 -33 22 -117 45 -189 52 -132 13
-237 50 -263 94 -10 16 -34 38 -53 48 -20 10 -43 24 -52 31 -23 18 -146 38
-319 52 -113 9 -160 18 -215 38 -67 26 -77 27 -227 24 -250 -6 -306 16 -346
135 -20 57 -23 80 -17 127 4 32 8 252 9 490 2 558 12 607 121 642 89 28 256
33 1054 34 431 0 785 1 787 2 1 2 378 2 838 2 768 -2 838 -3 862 -19z m14354
16 c317 2 305 2 329 -11 34 -17 50 -52 66 -134 13 -65 15 -224 15 -968 l0
-890 -25 -32 c-64 -80 -34 -73 -322 -78 -559 -8 -1607 -2 -1645 11 -22 7 -51
30 -73 57 l-36 44 1 841 c1 796 2 846 21 957 11 64 26 128 32 142 25 51 54 54
641 56 296 2 541 6 545 9 3 4 51 4 106 1 55 -4 210 -6 345 -5z m55823 -1
c1348 1 1474 -1 1547 -16 51 -11 87 -25 99 -38 11 -12 30 -62 43 -116 l23 -95
2 -1050 c2 -577 4 -3768 6 -7090 l2 -6040 33 -68 c39 -80 56 -90 187 -107 50
-6 122 -15 160 -20 39 -5 144 -14 235 -20 91 -7 199 -18 240 -25 41 -8 122
-23 180 -33 58 -11 155 -25 215 -31 131 -14 215 -30 215 -39 0 -4 15 -15 33
-25 18 -10 46 -34 61 -54 25 -31 30 -49 38 -132 5 -53 8 -220 6 -371 -3 -151
0 -331 6 -399 8 -107 7 -136 -8 -210 -22 -104 -41 -133 -103 -157 -46 -18
-140 -19 -2553 -22 -1378 -1 -2529 0 -2559 3 -75 9 -118 50 -131 126 -7 35 -9
262 -8 595 l3 539 33 48 c40 57 57 67 114 67 54 0 195 24 228 38 41 17 326 60
440 66 58 3 159 13 225 21 66 9 180 20 253 25 125 8 136 10 186 40 45 27 58
43 85 99 29 62 32 76 40 226 4 88 8 2919 7 6290 l-1 6131 -26 49 c-14 29 -37
56 -52 63 -41 20 -133 42 -175 42 -45 0 -178 24 -213 38 -14 6 -33 22 -42 36
-10 14 -48 41 -85 60 -71 36 -138 52 -257 61 -38 3 -99 7 -135 10 -90 7 -221
24 -310 40 -41 8 -104 17 -140 21 -97 10 -105 15 -145 93 l-35 71 0 522 c0
433 3 536 15 597 18 85 44 128 83 137 15 3 32 8 37 10 6 2 105 1 220 -2 116
-3 871 -5 1678 -4z m-63436 -2266 c13 -8 23 -21 23 -29 0 -8 4 -15 9 -15 5 0
16 -30 26 -67 26 -101 33 -438 33 -1508 -1 -876 0 -933 17 -975 23 -58 49 -87
94 -102 27 -9 258 -12 966 -12 l930 -1 37 -28 c73 -56 73 -54 74 -587 0 -261
-3 -538 -7 -615 -7 -128 -10 -145 -38 -200 -16 -33 -40 -70 -54 -83 l-24 -23
-944 -2 c-706 -2 -951 -6 -972 -15 -19 -8 -36 -29 -54 -68 -22 -49 -26 -75
-32 -198 -3 -77 -3 -226 1 -331 4 -104 7 -269 7 -365 -2 -6188 -3 -5970 33
-6240 13 -100 26 -124 82 -149 67 -29 144 -124 189 -230 37 -90 39 -94 86
-193 23 -48 41 -90 41 -93 0 -13 53 -69 92 -97 12 -10 43 -32 68 -51 69 -51
114 -64 260 -77 74 -6 158 -16 185 -21 113 -22 236 -28 420 -19 236 12 486 36
585 57 41 9 95 18 120 20 57 5 244 -38 271 -63 37 -33 59 -98 59 -171 0 -186
57 -519 112 -658 67 -169 71 -186 65 -280 -11 -160 -50 -237 -137 -266 -19 -7
-44 -18 -55 -24 -11 -7 -45 -18 -75 -25 -30 -7 -75 -20 -100 -30 -74 -31 -206
-69 -270 -79 -33 -6 -65 -13 -70 -16 -5 -3 -58 -14 -117 -25 -60 -10 -126 -23
-148 -28 -22 -5 -98 -15 -170 -22 -71 -6 -157 -16 -190 -21 -55 -9 -188 -16
-655 -35 -167 -7 -333 8 -406 37 -16 6 -108 15 -204 20 -164 9 -201 15 -340
56 -49 14 -119 41 -160 63 -9 4 -31 10 -50 14 -190 37 -313 82 -389 143 -75
61 -96 86 -110 130 -9 26 -35 64 -71 100 -99 101 -213 230 -240 272 -3 5 -27
16 -54 25 -26 9 -58 22 -71 29 -37 20 -151 130 -168 163 -9 17 -23 37 -32 44
-20 16 -42 69 -56 129 -5 25 -16 59 -23 76 -14 31 -42 112 -78 220 -11 33 -24
69 -29 80 -5 11 -14 43 -19 70 -31 157 -40 224 -45 350 -6 152 -21 256 -40
295 -7 14 -18 57 -24 95 -7 39 -21 103 -32 144 -18 73 -19 145 -19 3385 0
1821 3 3404 6 3517 l7 207 -39 60 c-23 35 -51 66 -68 73 -22 10 -182 12 -705
11 -372 -1 -710 -4 -751 -6 -82 -5 -193 9 -198 25 -2 5 -17 16 -32 24 -18 9
-38 35 -55 70 -24 52 -25 60 -16 133 5 42 10 314 10 605 l1 527 44 61 c57 78
70 87 156 105 60 12 130 13 463 5 216 -5 536 -8 712 -7 377 3 374 2 425 92
l34 59 3 470 c2 259 5 781 6 1160 2 607 5 695 19 735 9 25 23 70 32 101 25 88
58 98 356 108 102 4 471 5 820 3 539 -2 638 -5 657 -18z m46073 -3 c117 -44
124 -57 145 -258 14 -125 16 -295 16 -1108 -1 -528 -4 -1014 -7 -1080 l-6
-120 47 -60 c26 -33 54 -64 63 -70 16 -10 196 -12 597 -7 94 2 405 1 693 0
l523 -3 27 -34 c64 -82 62 -62 64 -731 l1 -607 -25 -54 c-14 -30 -36 -66 -49
-81 l-25 -28 -887 -5 c-506 -4 -899 -10 -913 -15 -13 -5 -24 -13 -24 -17 0 -5
-18 -28 -39 -52 -22 -23 -41 -53 -43 -65 -3 -13 -4 -164 -2 -337 1 -173 1
-1549 1 -3059 -2 -3054 -2 -3029 13 -3155 6 -49 11 -171 11 -270 -1 -147 2
-192 18 -245 17 -62 72 -206 92 -242 5 -10 9 -24 9 -32 0 -7 7 -19 15 -26 8
-7 15 -19 15 -27 0 -8 9 -33 20 -56 12 -23 25 -73 30 -112 15 -116 31 -175 54
-202 23 -27 118 -68 194 -84 24 -5 63 -17 87 -28 23 -10 58 -22 76 -26 19 -4
50 -16 69 -27 19 -11 67 -31 106 -44 68 -23 82 -24 420 -26 287 -2 367 0 449
14 55 9 143 22 195 28 52 7 113 18 135 26 52 18 189 18 223 0 15 -7 43 -20 62
-28 69 -30 109 -143 136 -378 7 -69 19 -168 25 -220 6 -52 15 -135 19 -185 4
-49 20 -128 35 -175 43 -133 38 -293 -11 -371 -58 -92 -254 -183 -464 -214
-153 -22 -374 -66 -460 -90 -30 -8 -113 -20 -185 -25 -71 -6 -145 -13 -164
-16 -19 -3 -131 -10 -250 -15 -470 -21 -530 -22 -686 -4 -82 9 -224 21 -315
26 -189 11 -249 21 -326 55 -30 13 -63 24 -74 24 -20 0 -202 91 -230 115 -16
13 -149 55 -240 76 -30 6 -64 18 -75 24 -11 7 -31 16 -45 20 -33 9 -90 64 -90
86 0 30 -22 72 -55 105 -18 18 -41 47 -52 66 -23 39 -51 75 -72 92 -8 6 -35
31 -61 56 -26 25 -66 61 -90 80 -23 19 -54 55 -68 80 -31 54 -54 79 -108 114
-23 15 -47 38 -54 51 -7 14 -17 25 -22 25 -9 0 -32 53 -41 96 -3 17 -17 55
-30 85 -13 30 -33 77 -43 104 -10 28 -26 61 -36 74 -10 13 -18 28 -18 33 0 6
-10 31 -23 57 -34 67 -44 121 -76 408 -6 48 -22 112 -40 157 -58 144 -62 173
-60 438 1 139 -3 273 -9 313 -9 51 -12 1004 -12 3439 l0 3369 -29 62 c-17 34
-38 66 -48 69 -10 4 -353 6 -763 5 l-745 -2 -46 28 c-32 20 -53 43 -74 82 -27
52 -28 57 -20 141 9 93 11 200 5 407 -2 72 1 261 6 420 9 265 12 293 31 331
32 60 101 112 165 125 33 6 303 9 733 8 374 0 691 2 705 5 16 5 30 19 39 39 7
18 19 44 27 59 12 22 14 200 14 1185 0 962 3 1174 15 1254 16 108 39 160 76
170 13 4 422 7 909 5 709 -1 892 -4 920 -15z m-28029 -2570 c41 -11 130 -27
199 -36 69 -8 141 -20 160 -25 19 -5 103 -11 185 -15 145 -6 259 -20 280 -33
5 -4 37 -14 70 -24 162 -46 372 -130 421 -169 20 -15 44 -31 55 -34 10 -4 41
-21 69 -40 27 -18 64 -36 81 -40 18 -4 46 -16 63 -26 17 -10 52 -30 77 -45 26
-14 52 -38 59 -52 12 -28 25 -44 61 -77 11 -11 44 -44 73 -74 118 -125 223
-224 256 -241 19 -10 54 -35 77 -57 23 -21 59 -53 80 -71 20 -18 46 -49 57
-69 13 -22 44 -50 81 -72 49 -30 65 -46 87 -91 15 -30 31 -75 37 -100 10 -48
47 -141 59 -150 4 -3 17 -25 29 -50 20 -42 46 -75 145 -184 l36 -40 63 13 c35
7 71 17 79 21 23 12 106 157 120 208 13 51 44 80 108 104 28 10 76 43 114 78
52 48 70 72 84 112 16 49 77 138 143 208 18 19 49 55 69 80 21 25 42 48 47 52
6 4 30 26 55 49 74 70 188 150 238 167 26 8 72 30 102 49 30 18 60 33 67 33
33 0 67 29 99 84 54 97 100 138 249 223 68 40 216 93 256 93 29 0 199 58 229
78 76 51 133 72 197 72 35 0 106 4 156 10 51 5 139 14 197 20 96 10 272 25
785 66 197 16 284 13 332 -10 15 -8 62 -21 103 -30 41 -9 94 -21 118 -26 23
-6 93 -10 155 -11 182 -1 338 -15 382 -34 22 -9 63 -28 90 -41 49 -24 171 -55
268 -69 59 -8 217 -73 224 -91 3 -8 11 -14 18 -14 7 0 42 -20 78 -44 36 -24
76 -47 88 -51 44 -14 97 -74 104 -118 6 -32 20 -54 66 -101 33 -32 59 -62 59
-67 0 -4 21 -15 48 -24 102 -36 173 -80 250 -154 23 -22 58 -49 79 -60 21 -10
49 -29 63 -41 57 -49 140 -132 140 -140 0 -4 18 -29 40 -56 26 -31 46 -72 61
-118 11 -39 24 -75 29 -81 4 -5 11 -26 15 -45 10 -52 45 -99 90 -122 21 -11
65 -46 97 -77 31 -31 70 -68 85 -83 82 -78 115 -152 134 -297 6 -47 17 -108
25 -135 8 -26 14 -57 14 -67 0 -20 18 -67 35 -89 7 -8 17 -31 24 -50 7 -19 17
-44 22 -55 5 -11 13 -56 18 -100 5 -44 16 -109 25 -145 9 -36 21 -130 27 -210
12 -151 16 -167 98 -318 11 -20 18 -112 27 -362 8 -184 21 -391 29 -460 14
-110 17 -408 20 -2490 2 -1301 8 -2401 12 -2445 5 -45 5 -106 0 -140 -5 -33
-10 -157 -11 -275 -1 -264 0 -269 105 -335 9 -5 28 -18 41 -28 14 -10 52 -22
84 -27 33 -5 82 -16 109 -24 131 -39 321 -65 505 -70 146 -3 199 -9 250 -24
102 -32 172 -43 319 -53 218 -14 234 -18 299 -86 37 -39 57 -69 62 -93 4 -20
6 -282 5 -584 -2 -527 -3 -549 -22 -574 -21 -28 -83 -65 -129 -76 -15 -4
-1154 -7 -2531 -6 l-2505 1 -71 24 c-76 27 -106 49 -142 106 -13 19 -36 49
-52 65 -27 26 -31 38 -37 116 -11 132 -17 899 -8 932 6 23 18 33 53 45 24 9
60 25 79 36 67 37 134 54 210 55 57 0 84 5 110 20 136 79 137 79 401 90 134 6
288 17 342 25 54 8 132 15 175 15 114 1 248 23 273 46 31 27 95 126 103 158
11 45 7 5344 -5 5396 -28 128 -38 209 -44 345 -4 83 -15 238 -25 346 -15 170
-22 205 -45 258 -24 53 -36 66 -82 94 -85 51 -113 121 -149 372 -7 49 -51 163
-74 190 -9 11 -47 66 -84 122 -37 56 -73 107 -81 113 -8 7 -15 18 -15 24 0 15
-107 91 -168 119 -27 12 -60 32 -74 43 -15 12 -52 34 -82 50 -49 25 -61 38
-91 96 -20 38 -66 99 -105 140 -39 40 -70 76 -70 79 0 4 -22 15 -50 24 -27 9
-52 21 -55 26 -4 5 -50 9 -103 9 -114 0 -278 15 -377 35 -38 8 -104 19 -145
25 -41 6 -106 19 -145 28 -98 24 -404 24 -455 0 -89 -41 -192 -68 -261 -68
-38 0 -103 -5 -142 -11 -125 -18 -260 -40 -303 -50 -48 -10 -137 -67 -167
-107 -12 -15 -25 -29 -29 -32 -13 -10 -53 -74 -75 -120 -23 -50 -114 -166
-147 -190 -11 -8 -36 -29 -54 -47 -30 -29 -158 -98 -260 -139 -24 -10 -62 -37
-85 -61 -22 -24 -50 -46 -61 -49 -37 -11 -84 -64 -91 -102 -4 -20 -12 -48 -19
-62 -7 -14 -16 -53 -20 -88 -7 -80 -45 -188 -85 -249 -17 -25 -31 -52 -31 -59
0 -8 -9 -31 -20 -52 -11 -21 -24 -58 -29 -82 -15 -74 -53 -214 -63 -233 -5 -9
-18 -72 -29 -138 -10 -66 -23 -128 -28 -137 -4 -10 -14 -53 -21 -97 -7 -44
-16 -84 -20 -90 -4 -5 -16 -39 -25 -75 -9 -36 -24 -92 -33 -125 -14 -53 -17
-194 -19 -1200 -2 -627 0 -1716 5 -2420 5 -802 5 -1300 -1 -1335 -7 -37 -6
-113 2 -230 22 -312 27 -329 109 -407 45 -43 64 -50 162 -63 30 -4 80 -15 110
-25 39 -12 117 -19 270 -26 176 -7 242 -14 365 -39 83 -17 164 -35 181 -40 17
-6 95 -16 175 -24 161 -16 231 -39 284 -96 l30 -31 7 -192 c6 -195 2 -659 -7
-866 -7 -126 -17 -152 -68 -171 -18 -6 -46 -18 -64 -25 -38 -17 -142 -17
-3122 -16 -1657 1 -2010 4 -2035 15 -17 8 -46 19 -64 26 -40 16 -48 29 -57
105 -6 43 -10 1004 -5 1111 1 35 127 124 175 124 64 0 190 22 260 45 39 12 95
31 125 41 44 14 94 18 247 21 153 2 210 6 280 23 49 11 158 25 246 31 151 10
160 12 208 41 38 24 56 45 80 92 28 53 33 77 42 191 8 89 11 931 12 2685 0
2423 -1 2559 -18 2625 -10 39 -26 113 -36 165 -10 52 -28 140 -39 195 -14 69
-22 157 -25 286 -8 282 -30 350 -132 406 -41 22 -103 72 -109 88 -2 7 -14 71
-26 142 -26 154 -56 225 -139 329 -5 6 -23 37 -41 70 -18 32 -51 84 -74 114
-44 59 -186 194 -228 216 -14 7 -44 42 -66 77 -36 57 -51 70 -127 113 -48 27
-114 71 -148 99 -58 48 -197 125 -226 125 -6 0 -33 10 -59 23 -44 21 -60 22
-282 23 -221 1 -238 2 -290 24 -54 22 -61 22 -283 16 -214 -6 -399 -28 -562
-65 -118 -28 -216 -41 -365 -51 -91 -6 -176 -14 -190 -17 -48 -11 -100 -44
-150 -93 -27 -28 -67 -57 -90 -65 -50 -17 -85 -57 -100 -112 -17 -58 -134
-169 -197 -184 -40 -11 -106 -53 -211 -138 -23 -19 -59 -59 -79 -90 -77 -113
-135 -187 -174 -222 -32 -28 -46 -53 -69 -120 -17 -46 -30 -96 -30 -110 0 -15
-10 -60 -23 -100 -44 -139 -46 -164 -48 -504 0 -181 -1 -406 -2 -500 0 -93 -1
-1248 0 -2565 0 -2722 0 -2861 -9 -2875 -3 -6 -3 -42 2 -81 6 -63 12 -78 49
-124 22 -28 41 -55 41 -58 0 -17 102 -61 165 -72 39 -6 88 -16 110 -20 59 -12
129 -19 328 -30 97 -6 190 -15 204 -21 40 -15 172 -39 215 -39 20 0 49 -5 63
-10 15 -6 86 -17 158 -26 110 -13 142 -20 192 -46 94 -49 115 -75 116 -150 4
-173 -2 -992 -7 -1055 -8 -89 -17 -98 -122 -124 -79 -19 -133 -19 -2609 -17
l-2529 3 -42 33 c-62 49 -67 76 -67 357 0 132 -2 353 -3 490 -4 304 4 365 56
443 l37 57 105 6 c76 5 124 14 175 33 39 14 82 26 97 26 15 0 39 5 54 10 14 6
94 13 178 16 83 3 212 15 286 26 74 11 205 24 290 28 201 11 246 18 296 46 42
24 45 29 78 157 13 51 15 519 16 3908 2 3663 1 3851 -16 3877 -36 55 -68 67
-243 88 -64 8 -138 19 -166 24 -27 6 -106 15 -175 19 -101 7 -148 15 -242 45
-112 35 -124 36 -245 34 -213 -3 -239 -1 -304 20 -35 12 -89 24 -119 28 -78
10 -109 46 -134 156 -18 75 -20 131 -21 583 -1 490 -1 501 20 550 12 28 35 64
51 81 28 30 35 32 125 39 51 3 785 5 1629 3 1754 -3 1569 8 1621 -101 l30 -62
-7 -205 c-5 -170 -3 -217 11 -275 8 -38 20 -135 24 -215 5 -80 15 -167 22
-194 11 -46 7 -240 -7 -292 -10 -38 24 -65 89 -69 91 -5 107 3 149 76 20 35
41 69 45 74 4 6 20 24 34 41 14 17 31 57 38 90 7 32 24 75 37 96 13 21 24 42
24 46 0 9 11 23 76 97 100 115 162 168 239 204 37 17 93 35 125 40 32 5 84 21
114 35 31 14 60 26 65 26 4 0 26 19 48 43 23 23 57 55 77 71 20 16 36 34 36
40 1 33 63 122 123 177 58 52 81 66 153 91 47 15 100 28 119 28 101 0 357 70
460 126 74 40 99 48 188 60 56 7 146 14 200 14 54 0 171 7 260 14 89 8 248 20
352 26 112 6 225 19 275 30 47 11 96 21 110 24 47 9 177 -3 251 -23z m66639
15 c47 -3 121 -14 165 -25 103 -26 367 -52 620 -61 194 -8 284 -18 322 -38 10
-5 41 -13 68 -17 28 -4 66 -14 85 -22 19 -9 53 -19 75 -23 22 -4 112 -27 200
-50 88 -23 187 -46 220 -51 73 -11 189 -37 230 -52 53 -19 140 -119 171 -197
15 -38 34 -76 43 -83 9 -7 61 -33 116 -58 55 -24 120 -58 145 -74 58 -40 170
-94 212 -102 18 -3 57 -17 86 -30 29 -13 58 -23 65 -23 21 -1 91 -60 112 -95
11 -18 46 -67 77 -108 77 -100 96 -134 114 -203 8 -33 21 -68 28 -79 7 -11 16
-32 19 -47 10 -37 53 -85 96 -107 20 -11 52 -34 72 -53 20 -19 56 -40 80 -47
43 -13 109 -56 109 -72 0 -5 11 -33 25 -64 14 -30 28 -69 31 -87 5 -31 18 -93
45 -218 6 -30 17 -62 24 -70 7 -8 18 -33 25 -55 7 -22 21 -52 31 -67 11 -14
51 -88 89 -164 l70 -137 0 -111 c0 -110 19 -375 40 -571 8 -70 12 -880 13
-2710 1 -2872 4 -3128 32 -3190 16 -34 18 -61 15 -180 -6 -258 -4 -328 13
-386 12 -42 23 -59 44 -70 16 -8 36 -24 46 -37 30 -36 65 -48 177 -61 104 -12
138 -18 235 -46 28 -8 73 -15 100 -15 79 0 120 -16 154 -59 17 -21 35 -50 40
-65 15 -38 15 -1065 1 -1132 -8 -37 -21 -61 -46 -85 l-35 -34 -1201 -3 c-996
-2 -1204 0 -1217 11 -9 8 -31 20 -49 27 -18 7 -38 22 -45 34 -17 31 -37 120
-46 206 -5 41 -11 86 -14 100 -39 162 -49 212 -60 320 -8 69 -12 170 -10 225
4 68 -1 135 -13 210 -9 61 -20 148 -23 195 -3 47 -10 90 -14 97 -22 34 -145
43 -172 13 -10 -11 -39 -32 -64 -47 -106 -62 -265 -251 -295 -352 -21 -69 -57
-129 -97 -164 -55 -48 -125 -97 -136 -97 -6 0 -16 -7 -23 -15 -7 -8 -19 -15
-27 -15 -8 0 -47 -15 -86 -34 -40 -18 -79 -36 -87 -40 -8 -3 -34 -19 -56 -34
-23 -15 -74 -47 -114 -71 -40 -25 -74 -50 -77 -57 -2 -7 -19 -18 -36 -25 -18
-7 -41 -20 -52 -30 -20 -18 -83 -42 -190 -74 -96 -28 -132 -51 -156 -97 -12
-23 -33 -51 -47 -63 -28 -21 -171 -95 -185 -95 -9 0 -78 -50 -88 -62 -3 -5
-31 -24 -63 -43 -78 -47 -192 -73 -354 -79 -107 -5 -149 -12 -225 -35 -146
-46 -231 -60 -375 -60 -73 -1 -163 -6 -200 -12 -45 -7 -167 -9 -377 -4 -323 7
-469 17 -545 35 -25 6 -144 15 -265 20 -240 10 -230 8 -480 105 -38 15 -99 31
-135 35 -84 11 -120 20 -120 31 0 5 -11 14 -25 19 -15 6 -50 21 -79 35 -29 14
-76 29 -104 35 -28 5 -80 23 -116 39 -65 29 -66 30 -101 108 -20 43 -43 82
-51 86 -9 5 -28 23 -42 40 -78 90 -105 116 -130 122 -15 4 -34 13 -42 20 -8 7
-52 32 -97 54 -45 23 -84 45 -88 50 -3 5 -31 15 -63 22 -57 13 -90 29 -126 61
-10 9 -30 22 -45 28 -14 6 -38 28 -52 49 -27 39 -79 181 -79 217 0 18 -69 160
-91 188 -40 50 -59 78 -83 121 -25 43 -53 90 -104 170 -26 42 -30 64 -37 186
-3 68 -12 142 -20 164 -7 22 -16 54 -20 70 -11 50 -34 76 -89 100 -32 14 -68
41 -90 66 -40 47 -37 24 -42 304 -1 83 -7 187 -14 233 -14 104 -15 702 -1 792
6 36 22 119 37 185 22 96 28 147 29 255 1 173 14 207 96 249 47 25 150 126
167 164 6 15 12 37 12 47 0 32 51 132 92 183 l40 48 13 142 c16 172 30 205
128 294 34 31 200 113 269 132 75 21 218 129 275 206 12 17 42 58 67 92 24 34
54 79 64 100 11 21 38 53 60 71 57 45 228 129 282 137 25 4 54 13 66 20 11 7
40 19 65 25 24 7 67 23 94 36 28 13 81 35 119 50 37 16 70 34 73 41 3 7 10 13
15 13 6 0 32 11 60 25 57 29 144 45 243 45 120 0 290 35 345 71 83 54 125 64
366 94 106 13 202 26 215 29 13 4 47 13 74 21 28 8 75 18 105 24 88 15 113 21
155 40 58 25 170 47 315 62 69 6 143 18 165 25 132 42 269 46 1495 48 l1055 1
60 33 c113 61 106 47 109 218 2 82 6 199 11 259 5 82 3 139 -9 224 -17 120
-18 105 22 361 8 50 -1 109 -46 310 -59 262 -82 424 -82 573 0 32 -6 82 -14
110 -8 29 -17 64 -20 80 -4 15 -15 36 -25 46 -10 10 -29 36 -42 59 -13 22 -63
95 -111 161 -49 66 -88 123 -88 127 0 4 -12 30 -26 58 -20 40 -44 65 -106 111
-44 32 -85 63 -91 69 -7 7 -26 21 -43 33 -17 12 -55 45 -84 72 -38 36 -69 55
-106 66 -29 8 -75 26 -102 40 -28 14 -53 25 -56 25 -7 0 -40 26 -73 57 -13 13
-36 29 -51 37 -15 8 -36 23 -47 33 -11 11 -35 25 -54 31 -34 12 -59 15 -300
33 -79 6 -151 15 -160 20 -9 5 -77 22 -151 39 l-135 30 -360 1 c-212 0 -393
-4 -440 -11 -44 -6 -118 -15 -165 -20 -47 -6 -110 -17 -140 -25 -199 -52 -294
-75 -360 -85 -41 -6 -100 -15 -130 -21 -30 -5 -81 -14 -112 -19 -31 -4 -69
-15 -85 -24 -81 -44 -194 -96 -210 -96 -10 0 -38 -10 -62 -23 -45 -22 -61 -46
-121 -177 -38 -84 -66 -104 -209 -151 -111 -36 -137 -55 -183 -130 -61 -101
-70 -142 -72 -309 -2 -153 -2 -156 -45 -290 -31 -97 -44 -158 -47 -215 -3 -44
-7 -90 -9 -102 -8 -35 -73 -100 -108 -107 -18 -4 -319 -9 -670 -12 l-637 -5
-63 22 c-34 12 -77 33 -94 47 l-33 24 -2 947 c-3 1109 -3 1065 11 1118 12 43
90 124 176 182 45 31 152 71 205 78 19 2 44 8 55 13 11 4 27 11 35 14 8 3 22
10 30 15 8 5 29 15 45 22 17 7 48 27 70 44 79 62 245 169 300 193 19 9 127 27
315 52 117 16 134 26 170 103 33 70 94 123 200 174 52 25 97 48 100 53 3 4 34
22 70 41 l65 34 150 1 c125 1 160 5 211 22 34 12 95 26 135 32 41 6 88 17 104
24 87 40 222 65 360 66 39 0 120 9 180 20 80 15 207 24 465 35 217 8 389 20
443 30 48 9 145 19 215 23 123 8 186 7 362 -2z m-48540 -20 c30 -8 143 -20
250 -26 107 -6 228 -18 269 -26 45 -8 135 -14 235 -14 266 0 395 -21 486 -76
80 -48 203 -78 485 -115 98 -12 176 -28 201 -40 63 -30 171 -144 194 -207 11
-29 27 -63 35 -76 33 -50 130 -97 295 -142 79 -22 254 -103 275 -128 6 -7 24
-18 40 -25 28 -11 76 -66 105 -120 7 -13 29 -41 49 -61 20 -20 43 -50 51 -66
8 -16 25 -40 37 -53 13 -13 37 -51 54 -85 57 -113 74 -132 155 -171 50 -24
140 -97 179 -144 11 -14 30 -36 43 -48 12 -13 22 -28 22 -33 0 -6 5 -10 10
-10 6 0 10 -4 10 -10 0 -5 18 -47 40 -92 22 -46 40 -88 40 -95 0 -7 11 -47 24
-90 13 -43 31 -114 41 -158 16 -78 28 -120 46 -160 5 -11 18 -45 29 -75 12
-30 29 -64 39 -75 10 -11 24 -36 31 -55 7 -19 19 -42 26 -50 19 -24 33 -122
38 -285 3 -82 10 -186 15 -230 5 -44 14 -136 21 -205 6 -69 16 -145 22 -170 5
-25 16 -81 23 -125 13 -86 25 -124 60 -195 13 -25 28 -70 35 -100 14 -66 15
-5118 0 -5185 -20 -96 -13 -149 37 -252 16 -34 15 -48 -18 -215 -19 -96 -24
-193 -13 -236 4 -12 34 -42 68 -67 33 -25 66 -49 72 -54 25 -20 56 -31 120
-41 37 -6 73 -15 79 -19 17 -13 124 -30 225 -35 168 -8 208 -23 261 -95 25
-34 29 -133 24 -673 -4 -549 -4 -545 -67 -583 -59 -35 -160 -47 -273 -33 -54
6 -902 10 -1335 5 -127 -1 -647 -2 -793 -1 -116 1 -151 5 -165 16 -9 9 -32 23
-50 32 -42 22 -47 36 -62 185 -6 69 -18 138 -26 153 -18 34 -56 169 -72 254
-7 33 -12 139 -12 235 0 96 -5 203 -11 239 -6 36 -14 120 -18 187 -8 153 -19
170 -78 132 -51 -34 -124 -67 -195 -89 -82 -25 -153 -81 -192 -151 -11 -19
-23 -36 -26 -39 -4 -3 -26 -41 -50 -85 -24 -44 -47 -81 -51 -83 -5 -2 -9 -8
-9 -14 0 -25 -157 -193 -211 -225 -19 -12 -91 -43 -160 -69 -68 -25 -131 -52
-139 -60 -9 -7 -31 -20 -50 -29 -43 -19 -103 -55 -110 -65 -3 -4 -23 -19 -45
-33 -22 -14 -59 -43 -82 -64 -23 -21 -55 -48 -71 -60 -18 -14 -34 -39 -42 -67
-8 -28 -23 -53 -42 -68 -35 -26 -111 -47 -178 -48 -48 -1 -162 -28 -224 -54
-41 -17 -146 -85 -180 -118 -36 -33 -141 -56 -293 -62 -88 -4 -169 -14 -210
-25 -249 -68 -260 -70 -438 -82 -289 -19 -848 0 -1158 41 -86 11 -193 19 -236
18 -52 -2 -83 1 -94 10 -17 15 -120 46 -222 68 -38 8 -89 19 -113 24 -23 5
-50 13 -60 18 -9 5 -46 14 -82 21 -59 10 -103 28 -212 83 -21 10 -73 32 -117
48 -44 16 -98 41 -120 55 -22 14 -44 25 -48 25 -5 0 -14 13 -20 28 -18 41 -42
70 -101 126 -29 28 -52 55 -52 60 0 17 -56 61 -130 99 -41 22 -77 42 -80 46
-3 4 -19 13 -37 20 -36 15 -88 61 -119 106 -22 33 -47 64 -104 128 -19 21 -61
52 -96 68 -52 25 -63 35 -78 72 -31 75 -61 129 -77 140 -9 7 -22 23 -29 37 -7
14 -22 35 -33 47 -33 36 -127 219 -127 246 0 8 -10 36 -22 63 -22 49 -27 72
-48 199 -34 207 -61 309 -108 402 -44 87 -53 145 -55 366 -2 117 -11 309 -22
427 -26 306 -15 457 54 740 31 128 54 248 61 321 10 101 15 123 45 180 48 89
55 107 66 164 16 86 42 128 137 218 43 40 67 95 101 232 18 72 58 146 95 176
12 10 39 23 61 29 36 11 153 88 196 129 9 9 25 23 35 32 11 9 37 38 59 64 48
58 60 71 105 110 47 41 129 139 169 200 46 71 127 122 194 124 38 1 214 81
257 116 8 7 26 16 40 20 14 4 45 19 70 34 39 24 100 52 205 96 82 35 99 38
295 65 41 6 120 22 175 37 55 14 118 29 140 33 22 5 65 17 95 28 66 24 137 42
205 52 28 5 91 16 140 25 50 9 126 20 170 25 157 18 180 22 212 36 17 8 38 14
47 14 9 0 44 12 79 26 70 29 166 58 392 115 118 30 376 36 1570 34 1034 -2
1208 -1 1255 12 91 25 109 34 129 67 17 29 18 61 19 536 1 567 4 540 -72 860
-43 180 -57 288 -71 530 -3 52 -11 121 -17 153 -12 61 -22 73 -103 115 -43 22
-67 44 -132 119 -99 114 -135 161 -173 224 -39 66 -110 138 -162 165 -25 13
-49 53 -81 135 -20 49 -72 73 -257 117 -66 16 -165 65 -245 122 -79 56 -100
63 -240 80 -167 20 -507 70 -560 83 -79 19 -696 14 -866 -7 -304 -38 -363 -47
-373 -55 -11 -9 -183 -51 -291 -72 -71 -13 -138 -36 -180 -60 -88 -51 -144
-77 -180 -82 -37 -6 -144 -36 -207 -59 -24 -9 -87 -92 -88 -116 -1 -8 -76 -92
-83 -92 -5 0 -59 -49 -134 -123 -24 -23 -48 -56 -54 -74 -6 -18 -14 -33 -19
-33 -17 0 -30 -62 -66 -315 -9 -66 -28 -157 -41 -203 -22 -70 -32 -88 -68
-120 -23 -20 -51 -55 -62 -77 -18 -35 -26 -66 -49 -184 -6 -27 -92 -116 -120
-124 -11 -3 -310 -9 -666 -13 l-647 -7 -58 24 c-72 28 -122 65 -135 98 -11 29
-13 1937 -2 2011 4 25 13 55 21 67 23 35 159 122 211 134 26 6 66 20 90 30 24
11 58 23 75 26 18 3 51 16 75 29 23 13 47 24 53 24 19 0 104 42 124 61 35 33
138 105 190 133 28 15 65 36 84 48 39 25 167 58 226 58 54 1 184 36 215 58 14
11 31 40 40 68 10 33 31 66 65 100 46 48 55 53 120 64 128 21 227 49 264 73
77 51 113 66 173 73 35 3 104 14 153 24 50 10 144 24 210 30 66 6 140 17 165
25 108 33 210 57 280 66 113 16 187 26 270 39 41 6 194 13 340 15 146 3 285 7
310 10 25 4 90 13 145 21 145 20 180 22 385 19 126 -2 203 -8 240 -19z m37235
3 c113 -21 430 -59 575 -69 171 -11 278 -24 328 -39 19 -6 108 -15 200 -22
114 -8 179 -17 207 -29 22 -10 56 -21 74 -25 59 -13 251 -103 251 -117 0 -4
19 -17 43 -29 23 -12 51 -29 62 -39 11 -9 43 -25 70 -35 28 -10 68 -26 90 -36
46 -21 174 -49 222 -49 51 0 80 -19 104 -69 11 -25 39 -63 60 -86 105 -109
187 -197 213 -228 28 -34 83 -67 111 -67 8 0 15 -4 15 -8 0 -12 78 -50 139
-68 27 -8 53 -19 56 -24 4 -6 30 -22 58 -37 89 -45 197 -153 197 -198 0 -17
29 -85 88 -203 10 -18 25 -42 35 -53 10 -11 24 -34 32 -52 8 -17 36 -56 64
-84 27 -29 64 -73 80 -97 23 -33 47 -52 95 -75 71 -33 116 -82 133 -146 6 -22
24 -86 39 -143 15 -57 37 -117 50 -135 13 -18 32 -48 41 -67 10 -19 28 -49 41
-67 12 -17 22 -38 22 -47 0 -8 6 -35 14 -58 7 -24 19 -63 26 -88 6 -25 18 -60
26 -79 8 -18 21 -77 29 -130 18 -118 34 -201 42 -221 21 -50 65 -221 99 -380
13 -63 33 -156 44 -207 22 -101 44 -329 37 -377 -3 -17 2 -67 10 -111 34 -194
41 -257 36 -362 -7 -143 16 -319 61 -459 66 -209 80 -369 71 -794 -3 -179 -8
-338 -9 -355 -2 -16 -4 -40 -4 -53 -2 -28 -31 -41 -168 -76 l-100 -25 -3444
-1 -3444 -1 -38 -42 c-22 -24 -41 -57 -45 -77 -7 -41 13 -474 26 -540 5 -25
12 -120 15 -211 7 -201 13 -255 31 -283 7 -11 21 -46 30 -76 10 -30 20 -59 24
-65 3 -5 13 -44 22 -85 29 -127 47 -193 68 -240 38 -87 71 -180 71 -200 0 -21
18 -66 35 -90 6 -8 17 -33 24 -55 18 -52 37 -74 87 -95 74 -32 133 -106 185
-230 12 -30 32 -68 44 -85 25 -36 71 -147 79 -192 3 -18 19 -62 36 -97 16 -36
30 -69 30 -73 1 -17 197 -211 235 -232 22 -12 58 -35 80 -51 22 -16 57 -32 77
-35 21 -4 55 -19 76 -35 21 -15 47 -30 58 -34 10 -3 44 -22 74 -42 30 -20 68
-43 85 -51 39 -20 55 -38 85 -96 29 -56 48 -71 150 -116 41 -18 93 -41 115
-51 22 -10 58 -24 80 -30 22 -7 63 -23 92 -36 28 -13 61 -24 73 -24 11 0 33
-6 48 -14 16 -8 79 -16 157 -19 72 -4 171 -13 220 -22 95 -17 170 -26 380 -45
111 -10 150 -10 265 5 74 9 158 21 185 26 28 6 147 13 265 16 157 4 255 12
365 29 82 13 172 24 200 24 71 1 157 22 255 62 91 38 116 45 198 58 29 5 87
19 128 32 65 19 83 30 134 81 68 69 149 123 203 138 21 6 57 21 80 35 23 13
61 33 85 44 23 11 45 26 48 34 3 8 47 35 97 61 98 48 110 55 172 95 55 36 109
60 135 60 12 0 45 11 73 24 29 13 66 29 83 35 16 6 41 22 55 34 13 13 53 43
88 66 l64 44 40 -44 c22 -24 59 -64 82 -89 23 -25 50 -60 59 -78 9 -18 20 -32
24 -32 10 0 62 -94 62 -112 0 -19 68 -98 84 -98 16 0 103 -75 117 -102 6 -11
17 -45 25 -76 8 -31 27 -75 42 -97 14 -22 34 -55 44 -72 10 -18 26 -42 35 -54
10 -11 28 -33 40 -47 31 -37 83 -136 83 -158 0 -11 7 -39 16 -63 13 -37 13
-46 1 -65 -16 -24 -49 -109 -80 -205 -16 -50 -32 -76 -71 -115 -65 -65 -158
-122 -230 -140 -31 -8 -73 -24 -94 -34 -20 -11 -57 -28 -82 -38 -24 -11 -57
-29 -71 -42 -15 -12 -43 -29 -62 -37 -20 -8 -38 -19 -42 -24 -3 -5 -42 -24
-88 -41 -45 -17 -109 -44 -142 -59 -100 -48 -128 -59 -180 -71 -27 -6 -59 -17
-70 -24 -11 -7 -38 -19 -60 -26 -52 -17 -81 -44 -106 -100 -13 -32 -34 -55
-67 -76 -109 -73 -198 -105 -342 -124 -79 -11 -209 -44 -290 -75 -46 -17 -104
-31 -220 -50 -52 -9 -122 -21 -155 -26 -33 -6 -82 -16 -110 -24 -27 -7 -104
-18 -170 -25 -66 -6 -140 -16 -165 -22 -25 -6 -187 -14 -360 -18 -173 -5 -396
-12 -496 -16 -181 -7 -495 8 -579 27 -22 5 -166 16 -320 24 -159 9 -304 22
-335 30 -114 29 -278 64 -355 74 -106 15 -285 58 -362 87 -34 13 -68 24 -77
24 -8 0 -32 8 -53 19 -21 10 -70 33 -110 51 -67 30 -74 36 -97 86 -14 30 -26
59 -26 65 0 25 -89 97 -141 114 -30 9 -67 23 -84 30 -16 7 -93 16 -170 20
-159 8 -141 -1 -287 135 -99 92 -100 93 -146 156 -43 59 -181 186 -234 216
-20 12 -44 35 -53 52 -21 43 -57 81 -94 100 -17 9 -55 42 -84 72 -28 31 -65
62 -80 71 -16 8 -48 33 -73 56 -24 23 -55 53 -70 67 -15 14 -38 42 -51 63 -24
38 -102 117 -115 117 -4 0 -18 18 -30 40 -15 26 -38 48 -64 60 -58 29 -81 53
-116 127 -30 65 -103 179 -139 218 -10 12 -24 36 -30 55 -7 19 -17 42 -24 50
-7 8 -31 49 -52 90 -22 41 -48 88 -59 105 -28 42 -44 90 -61 175 -35 182 -56
257 -97 334 -47 88 -56 114 -80 226 -56 265 -66 289 -124 319 -80 41 -119 117
-171 337 -23 93 -47 189 -55 214 -8 26 -20 129 -26 240 -6 107 -18 222 -26
255 -10 41 -18 154 -24 355 -6 168 -17 344 -27 410 -24 167 -24 626 0 812 9
75 17 179 17 230 0 139 18 401 35 498 22 133 35 285 35 409 0 72 5 130 15 160
8 25 24 84 36 131 37 141 142 370 183 400 70 49 112 132 142 280 6 31 39 114
65 163 49 91 50 96 105 336 18 83 52 171 65 171 5 0 18 18 29 41 12 22 35 55
52 72 17 18 38 48 47 67 9 19 37 67 63 105 25 39 69 112 98 164 44 77 63 99
106 128 35 23 66 56 94 99 22 35 49 69 58 76 9 7 26 30 37 51 11 20 22 37 26
37 3 0 11 12 18 28 27 59 109 170 171 232 36 36 70 76 76 90 39 93 71 144 103
166 20 13 53 37 73 53 21 16 55 32 75 36 21 4 65 20 98 35 33 16 67 31 75 34
23 9 53 29 75 51 11 11 34 29 50 39 17 11 52 40 78 65 26 25 62 55 80 66 18
11 60 40 94 65 100 72 128 88 189 101 60 13 124 61 124 93 0 27 89 102 168
141 42 21 79 42 80 47 2 4 9 8 16 8 7 0 21 9 31 20 43 47 238 129 350 147 22
3 63 17 90 30 28 12 59 23 71 23 11 0 25 5 32 12 9 9 80 15 225 20 116 5 255
12 307 17 176 17 520 60 531 67 38 23 386 25 504 3z m24753 -20 c68 -16 131
-34 140 -39 9 -5 28 -11 42 -14 14 -3 45 -20 69 -38 l44 -32 -7 -240 c-8 -252
-16 -351 -34 -401 -6 -16 -18 -66 -27 -110 -8 -44 -20 -99 -25 -123 -6 -23
-10 -102 -10 -175 0 -97 -6 -168 -24 -262 -13 -72 -29 -161 -35 -200 -20 -117
-44 -158 -117 -206 -88 -57 -146 -63 -479 -47 -401 20 -1133 15 -1265 -7 -98
-17 -122 -32 -158 -97 -34 -60 -72 -103 -117 -134 -20 -13 -38 -24 -40 -24 -2
0 -60 -26 -127 -58 -68 -32 -151 -66 -186 -76 -74 -20 -187 -75 -257 -126 -27
-19 -61 -41 -75 -48 -53 -27 -95 -75 -125 -142 -9 -19 -22 -41 -29 -50 -12
-15 -58 -124 -71 -168 -4 -12 -16 -33 -28 -46 -12 -13 -37 -40 -56 -61 -30
-33 -119 -85 -147 -85 -17 0 -60 -52 -82 -102 -15 -32 -25 -83 -31 -160 -17
-192 -33 -579 -27 -653 5 -58 11 -1471 21 -4735 1 -283 -2 -555 -7 -605 -14
-139 -11 -240 7 -296 9 -27 20 -49 25 -49 4 0 13 -13 20 -30 11 -27 77 -70
108 -70 7 0 31 -9 55 -19 68 -32 240 -61 417 -71 226 -13 284 -19 365 -35 39
-8 115 -19 170 -24 55 -6 144 -22 197 -35 91 -24 203 -69 213 -86 3 -5 30 -16
60 -25 30 -10 60 -25 67 -33 17 -20 17 -189 -1 -502 -13 -243 -13 -246 9 -355
30 -141 31 -270 3 -317 -18 -32 -24 -34 -149 -60 l-129 -26 -2105 -2 c-1158
-1 -2166 0 -2240 2 -144 3 -255 3 -525 -3 -158 -4 -173 -2 -217 18 -49 23 -72
54 -82 113 -4 19 -7 281 -9 581 l-2 547 40 58 40 59 70 11 c39 7 104 10 145 7
86 -6 114 0 265 54 l110 40 155 -5 c149 -4 267 6 420 38 25 5 80 14 122 20
107 16 198 63 235 123 4 7 22 23 40 35 37 26 54 76 74 214 9 68 9 105 0 175
-10 72 -10 94 1 118 11 25 13 636 13 3340 0 1943 -4 3347 -9 3400 -5 50 -7
128 -5 175 10 217 0 348 -30 384 -7 8 -36 22 -64 31 -29 9 -65 23 -82 30 -62
28 -174 55 -300 71 -71 9 -135 20 -141 25 -16 13 -108 35 -179 43 -57 7 -322
27 -590 45 -67 4 -130 13 -142 20 -12 6 -32 11 -45 11 -35 0 -83 34 -95 66
-50 140 -48 113 -46 669 l2 520 24 56 c29 64 43 78 94 90 34 8 1099 10 2738 4
533 -2 546 -2 632 -42 25 -12 37 -28 58 -81 26 -64 28 -79 36 -317 11 -325 24
-539 34 -555 4 -7 11 -94 14 -195 5 -146 10 -187 24 -208 l16 -25 83 29 c46
16 107 37 137 46 35 11 68 31 95 57 24 23 54 50 67 61 30 25 33 31 98 216 42
118 94 192 171 241 36 23 85 61 110 85 24 23 57 48 72 54 15 6 28 15 28 19 0
4 35 25 78 46 42 21 89 50 104 64 26 24 68 108 68 134 0 7 18 34 41 60 35 39
51 49 115 67 68 20 119 53 195 124 21 20 55 30 169 50 135 24 178 36 191 51 6
8 16 14 21 14 6 0 33 11 61 26 32 16 88 31 151 40 56 8 108 17 116 20 15 6
160 18 335 29 55 3 156 13 225 20 167 20 183 21 345 17 113 -3 164 -9 263 -33z
m8692 16 c52 -7 174 -19 270 -25 96 -6 189 -13 205 -15 17 -2 73 -9 125 -15
94 -11 132 -18 240 -45 30 -7 84 -18 120 -25 36 -6 79 -17 95 -25 17 -7 50
-19 75 -25 25 -7 62 -19 83 -26 20 -8 44 -14 52 -14 16 0 94 -33 200 -85 103
-50 141 -63 230 -79 169 -31 219 -63 245 -160 8 -28 29 -67 52 -93 21 -24 38
-48 38 -53 0 -6 49 -59 109 -119 75 -75 121 -113 147 -122 22 -7 46 -18 54
-25 8 -6 33 -17 55 -24 114 -37 132 -46 183 -98 28 -30 52 -59 52 -65 0 -5 11
-25 25 -43 14 -18 31 -59 39 -91 7 -32 35 -98 62 -148 86 -161 108 -208 159
-335 15 -36 33 -75 40 -87 55 -86 73 -134 85 -224 30 -246 46 -303 91 -341 18
-16 40 -28 49 -28 26 0 84 -45 114 -88 25 -36 29 -55 41 -184 8 -79 21 -201
29 -273 9 -71 20 -197 26 -280 6 -82 15 -166 20 -185 5 -19 19 -127 30 -240
11 -113 25 -226 30 -253 6 -30 9 -980 9 -2595 -1 -1401 -1 -2664 -1 -2807 l0
-261 33 -49 c41 -60 44 -62 94 -76 22 -6 65 -17 95 -26 30 -9 84 -25 120 -35
40 -11 142 -24 266 -33 110 -7 212 -16 225 -19 46 -11 84 -16 194 -26 172 -16
264 -29 283 -39 9 -5 37 -12 62 -16 62 -10 166 -51 211 -83 21 -15 46 -43 55
-62 19 -39 21 -108 16 -698 -2 -318 -4 -349 -23 -409 -24 -73 -45 -100 -86
-108 -16 -4 -49 -13 -75 -21 -40 -12 -414 -14 -2587 -14 l-2540 0 -34 30 c-53
46 -57 92 -57 697 l0 528 28 50 c15 28 32 59 38 69 9 15 29 18 126 22 64 2
138 9 164 15 27 6 83 17 124 24 41 8 106 21 145 30 38 8 98 15 132 15 34 0 84
4 110 9 110 22 280 41 458 51 233 14 267 25 285 92 7 23 17 54 24 68 8 19 12
734 14 2794 2 2479 1 2775 -13 2823 -23 78 -34 224 -22 281 6 26 10 121 11
212 0 150 -1 169 -21 205 -84 160 -110 247 -128 435 -10 107 -23 171 -38 189
-8 9 -20 32 -27 51 -8 19 -19 40 -25 45 -6 6 -37 40 -69 77 -45 52 -68 71
-100 80 -22 7 -52 19 -66 29 -14 9 -47 30 -75 47 -104 64 -174 151 -235 292
-34 79 -61 113 -101 125 -13 4 -70 32 -125 61 -96 50 -221 94 -308 109 -21 3
-46 10 -55 14 -9 5 -68 21 -131 36 -104 25 -140 28 -383 35 -154 5 -273 12
-280 18 -19 16 -123 32 -208 32 -55 0 -98 -7 -155 -26 -44 -14 -117 -30 -164
-35 -47 -5 -91 -11 -98 -14 -7 -3 -106 -12 -220 -20 -114 -8 -229 -20 -257
-26 -27 -5 -88 -17 -134 -25 -48 -8 -94 -23 -108 -34 -13 -10 -38 -22 -56 -25
-18 -4 -52 -24 -77 -44 -25 -20 -60 -43 -78 -50 -34 -14 -74 -71 -86 -122 -6
-26 -62 -89 -79 -89 -5 0 -34 -22 -64 -50 -30 -27 -60 -50 -67 -50 -7 0 -21
-9 -31 -20 -21 -23 -98 -60 -125 -60 -42 0 -219 -110 -244 -152 -9 -14 -32
-36 -51 -48 -19 -12 -35 -25 -35 -29 0 -4 -10 -18 -22 -31 -29 -31 -78 -152
-78 -190 0 -40 -37 -195 -54 -228 -8 -15 -48 -53 -89 -85 -108 -85 -106 -71
-105 -552 0 -214 -4 -1438 -7 -2720 -8 -2614 -8 -2475 -3 -2722 4 -153 2 -194
-14 -255 -10 -40 -23 -83 -30 -96 -9 -18 -8 -29 4 -55 8 -18 19 -47 22 -64 5
-20 26 -50 54 -77 91 -87 174 -136 267 -155 33 -8 87 -20 120 -27 33 -8 161
-18 285 -23 155 -6 239 -14 270 -24 25 -9 72 -20 105 -26 153 -25 204 -33 314
-46 126 -14 180 -36 261 -104 l35 -29 3 -483 c2 -266 0 -526 -3 -576 -9 -123
-25 -147 -120 -181 -87 -30 211 -27 -2727 -24 l-2398 2 -66 26 c-48 20 -68 33
-75 52 -29 75 -33 238 -24 802 6 362 7 375 53 417 50 46 110 73 187 84 36 5
98 21 138 35 104 37 193 50 502 73 77 6 178 18 225 26 47 8 117 15 157 15 121
0 223 18 256 46 16 13 32 24 37 24 4 0 28 30 53 68 42 62 47 74 57 162 7 67
10 1191 8 3855 -3 3287 -5 3765 -18 3800 -13 36 -24 44 -100 82 l-85 43 -201
14 c-110 8 -220 22 -245 30 -132 44 -261 65 -469 76 -194 11 -250 18 -372 51
-94 25 -143 53 -157 89 -33 81 -36 141 -25 530 3 107 6 294 8 415 1 121 7 229
11 240 16 37 48 75 88 102 l40 28 1551 -2 c853 -2 1564 -6 1581 -9 40 -9 93
-45 100 -69 3 -11 17 -62 30 -114 13 -51 29 -98 34 -105 18 -22 32 -147 25
-231 -6 -70 -3 -94 19 -171 33 -113 49 -288 46 -502 -2 -164 -1 -168 25 -217
14 -27 32 -53 39 -57 6 -4 41 -8 77 -8 l66 0 92 90 c51 50 92 95 92 101 0 6
17 31 38 54 27 31 42 60 51 99 7 30 18 59 25 65 7 6 25 35 40 65 15 30 43 72
62 94 19 22 34 43 34 46 0 13 70 73 98 85 18 8 32 17 32 21 0 5 42 22 94 40
51 17 102 37 112 45 10 8 38 24 60 34 25 11 61 42 90 79 27 33 59 64 70 70 12
6 32 34 45 63 50 111 51 112 128 152 40 20 85 37 100 37 14 0 71 11 126 24 91
22 143 44 300 130 17 9 55 27 85 41 30 13 62 29 70 35 77 52 196 79 350 81
114 1 300 14 420 29 41 5 161 17 265 25 105 9 226 20 270 25 92 10 198 5 335
-15z m20630 -12 c113 -14 232 -29 265 -34 33 -5 123 -14 200 -19 169 -13 241
-28 457 -96 43 -13 85 -24 95 -24 10 0 27 -6 38 -14 19 -13 52 -23 230 -70 44
-11 96 -31 116 -43 20 -13 40 -23 45 -23 5 0 40 -18 78 -40 38 -22 79 -43 91
-46 34 -8 80 -63 95 -113 8 -25 31 -61 52 -82 21 -21 38 -42 38 -47 0 -20 82
-101 113 -111 17 -6 54 -22 81 -36 27 -14 58 -25 69 -25 11 0 45 -12 76 -27
66 -33 242 -205 273 -268 11 -22 27 -53 36 -70 8 -16 19 -49 23 -72 5 -24 17
-61 29 -85 11 -23 20 -46 20 -51 0 -17 48 -113 63 -125 8 -7 21 -27 28 -44 7
-17 24 -43 37 -57 14 -14 42 -49 62 -77 30 -40 48 -54 82 -63 50 -15 94 -49
108 -87 15 -37 28 -100 51 -237 11 -65 27 -137 35 -159 8 -22 14 -55 14 -73 0
-18 13 -59 29 -91 77 -154 94 -224 111 -474 13 -189 26 -306 45 -385 20 -89
52 -402 67 -675 6 -92 13 -1370 17 -2895 l6 -2730 26 -64 c14 -35 32 -67 40
-71 8 -4 77 -11 154 -15 77 -4 148 -11 158 -17 26 -13 105 -32 222 -53 55 -10
156 -28 225 -42 69 -13 195 -28 280 -34 85 -5 171 -16 190 -23 19 -8 60 -19
90 -26 70 -17 178 -72 216 -111 l29 -30 2 -401 c3 -521 -10 -711 -52 -779 -6
-9 -44 -28 -86 -42 l-76 -27 -2309 1 c-2743 1 -2645 0 -2709 18 -117 32 -117
33 -134 171 -17 139 -21 274 -23 680 l-1 385 32 57 c38 68 59 77 186 84 111 6
250 29 374 60 59 15 123 24 175 24 100 1 367 25 421 39 22 5 109 17 192 27
178 20 207 32 218 91 4 21 11 43 17 50 5 7 14 45 19 85 6 44 10 1150 9 2823 0
2702 0 2752 -20 2865 -14 80 -20 161 -20 265 0 158 -12 267 -34 300 -13 20
-46 103 -73 185 -8 25 -18 95 -23 155 -14 170 -26 243 -46 273 -10 15 -30 50
-45 77 -15 28 -43 81 -64 120 -20 38 -56 91 -78 116 -23 25 -59 66 -81 92 -28
34 -51 50 -90 63 -109 35 -212 92 -239 132 -15 21 -27 45 -27 53 0 33 -41 79
-92 103 -29 14 -91 50 -138 81 -104 69 -178 92 -370 115 -52 7 -160 23 -239
36 -114 19 -180 23 -322 23 -98 0 -184 3 -190 6 -19 12 -127 35 -197 41 -76 7
-166 -8 -223 -38 -20 -10 -54 -21 -75 -24 -22 -3 -55 -9 -74 -14 -19 -6 -100
-15 -180 -21 -225 -16 -348 -42 -452 -93 -28 -14 -60 -26 -70 -26 -9 0 -32 -7
-50 -14 -18 -8 -68 -22 -110 -31 -43 -9 -80 -20 -83 -26 -4 -5 -17 -9 -31 -9
-14 0 -42 -9 -63 -19 -29 -15 -40 -29 -50 -63 -16 -52 -62 -148 -71 -148 -4 0
-13 -14 -20 -31 -16 -39 -77 -97 -110 -106 -27 -7 -90 -50 -103 -70 -4 -7 -14
-13 -21 -13 -7 0 -30 -15 -52 -33 -53 -44 -90 -67 -109 -67 -9 0 -44 -11 -78
-23 -34 -13 -80 -30 -101 -37 -55 -18 -73 -37 -97 -106 -23 -67 -24 -70 -39
-179 -21 -148 -34 -180 -114 -270 l-73 -82 -7 -79 c-4 -43 -7 -1489 -7 -3212
l-1 -3133 29 -42 c15 -23 49 -63 74 -88 43 -44 50 -47 135 -62 136 -25 258
-37 379 -37 66 0 150 -8 210 -19 55 -10 179 -27 275 -36 96 -9 198 -23 225
-30 28 -8 75 -19 105 -26 30 -6 62 -17 70 -24 8 -6 32 -19 53 -29 20 -9 37
-20 37 -25 0 -4 11 -13 24 -21 14 -7 27 -24 31 -39 4 -14 5 -174 4 -356 -3
-408 -3 -392 6 -550 8 -143 -3 -256 -30 -285 -9 -10 -46 -27 -83 -39 l-67 -22
-2550 3 -2550 3 -47 28 c-25 15 -52 35 -60 44 -10 13 -13 126 -13 604 l0 589
56 56 57 56 128 14 c71 8 143 19 159 24 50 16 285 51 375 56 91 5 176 17 280
39 36 7 142 19 237 26 205 15 243 29 304 116 30 44 38 65 43 123 9 89 9 7550
0 7645 -3 38 -12 80 -20 92 -20 32 -148 90 -224 102 -36 6 -99 11 -140 11 -90
0 -240 18 -255 30 -5 5 -67 22 -137 39 -115 28 -141 31 -295 31 -258 0 -442
33 -508 91 -66 58 -67 66 -59 669 l7 535 25 47 c14 26 41 62 59 80 l34 33
1092 1 c601 1 1211 3 1357 4 564 6 689 2 761 -21 68 -21 196 -111 211 -147 4
-9 7 -67 7 -127 1 -61 7 -135 15 -165 47 -182 60 -314 72 -715 4 -170 7 -195
27 -234 43 -87 45 -88 100 -34 173 172 212 221 227 284 28 116 142 236 248
261 32 7 68 24 90 43 20 18 52 40 71 49 18 10 47 34 65 54 60 71 202 203 254
239 31 21 65 56 83 86 57 92 129 147 196 147 23 0 227 80 244 96 22 20 148 81
224 109 33 12 87 35 120 51 88 42 132 51 320 69 154 14 288 30 477 56 37 5
136 9 221 9 84 0 180 5 213 11 173 33 299 31 614 -8z m11186 17 c81 -23 316
-57 611 -88 50 -6 100 -15 111 -21 12 -6 29 -11 39 -11 11 0 50 -16 89 -35 38
-19 77 -35 86 -35 9 0 29 -7 45 -15 38 -19 151 -53 199 -59 246 -30 261 -36
347 -123 67 -68 94 -106 102 -145 8 -37 78 -97 157 -135 81 -40 191 -111 245
-160 23 -21 48 -39 55 -42 39 -12 129 -59 173 -90 75 -54 118 -101 139 -151
10 -25 27 -64 38 -88 10 -23 23 -64 29 -91 17 -79 25 -86 113 -85 42 0 78 3
81 6 6 6 42 146 59 233 10 50 12 102 7 180 -7 112 0 226 19 302 6 24 15 102
21 175 12 167 13 171 47 206 30 33 73 56 190 105 l77 31 670 4 c369 2 707 0
753 -3 72 -6 86 -10 107 -33 13 -14 27 -43 30 -64 4 -21 11 -40 16 -44 13 -8
11 -10630 -2 -10754 -23 -223 -29 -291 -35 -400 -3 -63 -12 -137 -19 -165 -18
-68 -33 -173 -41 -280 -3 -49 -7 -101 -10 -115 -15 -103 -26 -244 -33 -415 -4
-117 -12 -208 -18 -220 -7 -11 -14 -33 -18 -48 -8 -37 -51 -81 -100 -101 -80
-34 -118 -92 -136 -208 -6 -40 -22 -109 -35 -153 -13 -44 -30 -105 -38 -135
-8 -30 -24 -81 -35 -112 -12 -32 -21 -64 -21 -72 0 -20 -96 -203 -117 -224 -9
-9 -22 -30 -29 -47 -7 -17 -22 -39 -33 -49 -12 -11 -21 -24 -21 -29 0 -6 -6
-18 -13 -26 -7 -9 -19 -34 -26 -56 -7 -22 -19 -47 -26 -55 -12 -14 -22 -44
-39 -121 -3 -15 -21 -46 -40 -68 -19 -23 -37 -50 -41 -60 -7 -23 -67 -64 -120
-81 -22 -7 -61 -34 -87 -59 -25 -25 -67 -62 -91 -81 -25 -19 -52 -46 -59 -60
-24 -46 -71 -110 -79 -110 -5 0 -9 -7 -9 -15 0 -18 -75 -95 -93 -95 -24 0 -72
-54 -97 -109 -32 -69 -140 -154 -225 -176 -31 -9 -71 -25 -88 -38 -18 -13 -49
-32 -70 -42 -20 -11 -80 -54 -131 -96 -76 -61 -108 -80 -167 -99 -69 -22 -189
-92 -189 -110 0 -22 -65 -31 -202 -29 -98 2 -149 0 -163 -9 -11 -6 -36 -18
-56 -26 -40 -15 -83 -65 -93 -108 -9 -41 -76 -101 -132 -119 -66 -23 -167 -37
-299 -44 -115 -6 -169 -12 -425 -46 -85 -12 -177 -23 -205 -26 -27 -2 -129
-13 -225 -25 -220 -25 -633 -36 -735 -18 -38 6 -97 16 -130 22 -33 6 -184 11
-335 12 -256 2 -278 3 -320 23 -25 11 -61 24 -80 27 -19 4 -48 13 -65 21 -38
16 -120 30 -305 51 -221 24 -293 52 -334 129 -11 19 -22 35 -26 35 -4 0 -23
11 -42 24 -20 13 -66 31 -104 41 -97 24 -194 53 -229 70 -35 17 -162 35 -241
35 -33 0 -72 8 -97 19 -24 11 -56 23 -72 27 -17 4 -34 10 -40 14 -5 5 -40 20
-77 35 -36 15 -86 39 -110 54 -64 41 -172 78 -268 92 -105 15 -188 50 -194 81
-16 71 -26 149 -26 199 0 72 35 246 53 268 8 9 20 34 27 56 7 22 19 50 26 62
8 12 20 46 28 75 8 29 21 73 30 97 9 24 16 50 16 58 0 15 28 77 61 133 11 19
44 60 74 90 29 30 56 69 59 85 4 17 30 75 57 131 36 73 51 118 55 163 8 76 29
95 111 106 141 19 196 1 312 -102 55 -49 100 -61 246 -68 66 -2 100 -9 130
-24 21 -12 46 -21 55 -21 9 0 24 -6 35 -14 11 -7 31 -15 45 -18 157 -33 239
-48 315 -57 50 -7 140 -22 200 -36 246 -53 305 -61 566 -75 162 -8 379 -41
404 -60 20 -16 183 -39 297 -43 109 -3 119 -5 160 -33 71 -48 133 -65 193 -51
52 11 110 42 134 71 7 9 18 16 23 16 6 0 31 11 57 23 53 27 102 35 293 47 129
8 211 23 232 42 6 4 18 8 29 8 17 0 97 40 125 63 21 17 124 59 157 64 240 36
260 43 369 126 38 28 84 62 104 74 38 23 102 88 102 103 0 6 22 32 50 60 27
27 53 62 56 77 4 16 34 82 66 148 32 66 65 144 73 174 16 63 49 96 103 106 20
3 55 19 77 35 22 16 57 41 78 55 l37 25 0 81 c0 99 18 219 35 239 7 8 19 35
26 60 7 25 16 50 20 55 10 13 64 258 79 355 6 41 10 156 9 255 -1 139 2 190
14 225 25 73 27 110 32 693 4 573 2 612 -34 605 -9 -2 -27 -34 -42 -77 -25
-67 -36 -81 -126 -167 -98 -95 -134 -120 -208 -144 -52 -17 -103 -49 -196
-125 -42 -34 -89 -65 -105 -69 -32 -8 -254 -226 -254 -250 0 -18 -75 -84 -117
-102 -18 -8 -43 -14 -57 -14 -26 0 -250 -93 -276 -114 -22 -18 -175 -63 -260
-76 -41 -6 -105 -18 -141 -26 -37 -7 -80 -14 -95 -14 -36 -1 -134 -24 -160
-38 -11 -6 -61 -22 -111 -36 -88 -25 -108 -26 -515 -37 -380 -10 -434 -9 -528
5 -203 32 -367 47 -558 52 -106 2 -212 9 -235 15 -55 14 -64 15 -184 34 -139
22 -353 92 -353 116 0 5 -21 20 -47 34 -27 14 -66 38 -88 53 -22 15 -56 33
-76 40 -49 17 -152 87 -214 145 -27 26 -59 47 -70 47 -34 1 -165 72 -230 125
-23 18 -57 40 -75 48 -19 7 -60 35 -90 61 -76 65 -146 103 -229 125 -39 10
-77 23 -84 28 -6 5 -27 16 -46 23 -19 8 -49 30 -66 49 -121 135 -145 167 -145
196 0 29 -110 207 -173 280 -86 101 -109 130 -123 158 -21 39 -51 64 -89 73
-50 11 -90 45 -141 119 -31 46 -51 87 -57 120 -5 27 -22 78 -38 112 -16 34
-29 68 -29 76 0 7 -4 17 -9 23 -6 5 -31 50 -56 99 -25 50 -50 97 -55 105 -23
37 -80 172 -80 191 0 11 -4 28 -10 38 -5 10 -17 54 -25 97 -9 43 -25 94 -36
113 -43 81 -68 149 -78 208 -5 34 -14 70 -19 80 -5 10 -12 38 -16 62 -9 62
-62 178 -102 225 -18 21 -39 55 -45 75 -7 20 -25 63 -40 97 -16 34 -29 68 -29
76 0 8 -9 32 -19 54 -46 94 -59 181 -62 395 -3 251 -15 410 -33 469 -8 25 -20
77 -26 115 -7 39 -17 90 -22 115 -16 67 -22 950 -8 1086 25 233 37 415 39 564
1 85 8 196 16 245 17 111 35 347 35 480 0 64 7 127 19 175 26 105 83 273 98
288 6 6 14 20 17 30 4 10 35 44 70 75 72 64 79 82 115 297 34 200 68 346 106
450 6 19 22 94 35 165 22 130 57 243 92 300 10 17 25 46 33 65 18 40 51 112
85 184 12 27 31 57 41 67 10 10 26 33 35 51 9 18 30 49 46 69 19 24 32 55 38
94 13 81 47 178 70 203 11 12 39 30 63 40 23 10 56 31 72 47 17 15 48 36 70
47 48 25 71 49 107 114 29 51 85 133 118 171 28 32 70 101 70 113 0 21 43 106
74 145 61 78 181 188 231 211 28 13 70 42 95 64 52 47 161 123 205 142 17 7
53 29 81 50 28 21 57 38 64 38 23 0 80 51 109 97 41 65 101 110 169 124 31 6
63 15 71 19 16 8 25 12 121 50 30 12 62 28 70 35 31 27 297 156 390 190 86 31
102 33 260 40 74 4 182 10 240 15 58 4 206 15 330 24 124 9 266 24 315 33 137
25 196 30 364 31 128 2 167 -1 227 -18z m-83146 -21 c236 -33 395 -46 575 -48
164 -2 287 -13 350 -31 17 -4 66 -16 110 -25 44 -10 107 -26 140 -37 33 -11
80 -26 105 -33 25 -7 96 -31 159 -54 63 -22 124 -41 136 -41 11 0 29 -6 40
-13 11 -7 47 -19 80 -27 33 -7 68 -17 77 -22 9 -4 51 -15 93 -23 90 -17 203
-59 227 -85 10 -10 23 -38 30 -61 10 -32 39 -68 123 -153 134 -135 166 -163
213 -184 21 -10 53 -27 73 -39 19 -12 60 -29 90 -37 91 -24 219 -94 264 -144
57 -64 102 -138 125 -202 11 -30 26 -66 34 -80 8 -14 32 -56 52 -95 20 -38 47
-84 60 -101 13 -17 24 -35 24 -40 0 -5 19 -30 43 -55 23 -25 50 -60 59 -77 12
-22 37 -41 92 -67 57 -27 82 -46 100 -73 13 -20 35 -48 49 -60 16 -15 32 -48
43 -90 9 -37 22 -74 29 -82 43 -55 115 -300 115 -389 0 -21 15 -66 34 -106 43
-90 61 -146 85 -275 33 -175 81 -350 114 -415 27 -53 59 -180 68 -270 5 -55
13 -181 18 -280 11 -207 26 -265 92 -341 21 -25 39 -47 39 -50 0 -3 6 -37 14
-77 8 -40 22 -124 31 -187 9 -63 18 -126 21 -140 5 -28 26 -992 24 -1135 -1
-118 -27 -340 -43 -374 -12 -26 -20 -29 -137 -62 -36 -10 -736 -15 -3350 -21
-1818 -5 -3366 -8 -3440 -7 -197 1 -253 -7 -289 -40 -27 -25 -29 -34 -36 -125
-10 -136 7 -345 35 -421 56 -152 67 -219 73 -450 7 -280 27 -372 93 -444 13
-14 24 -29 24 -33 0 -4 11 -18 25 -32 22 -22 25 -33 25 -103 1 -166 35 -320
80 -360 14 -12 45 -29 70 -38 25 -8 53 -25 63 -38 38 -49 105 -143 117 -167 7
-14 26 -41 41 -60 46 -57 106 -181 113 -235 5 -27 21 -77 37 -110 16 -33 29
-65 29 -72 0 -14 164 -183 178 -183 6 0 33 -18 60 -39 28 -22 79 -53 114 -69
34 -16 80 -43 102 -61 21 -17 43 -31 47 -31 5 0 30 -15 56 -34 27 -19 64 -40
83 -48 41 -18 84 -70 94 -115 4 -17 15 -40 24 -50 30 -33 128 -83 163 -83 19
0 59 -9 89 -21 30 -11 74 -26 97 -34 23 -7 54 -22 68 -33 14 -11 40 -24 58
-28 17 -3 41 -12 52 -19 12 -7 74 -15 150 -19 72 -3 171 -13 220 -22 102 -18
191 -28 385 -45 115 -10 155 -9 270 6 74 9 155 21 180 27 25 6 164 12 310 15
146 2 288 8 315 13 28 5 86 13 130 19 44 6 128 18 187 26 70 9 127 23 161 40
30 14 60 25 68 25 8 0 20 5 26 11 11 11 159 54 238 68 136 25 265 87 265 127
0 11 50 48 135 101 20 13 67 36 95 47 25 10 54 30 75 52 11 12 31 27 44 34 13
7 43 27 67 45 24 18 58 36 76 40 18 4 53 16 78 27 25 11 69 26 99 34 29 8 65
22 80 32 14 10 51 31 82 46 35 18 82 55 123 97 36 38 70 69 75 69 5 0 16 -11
25 -24 8 -14 46 -56 83 -94 109 -111 144 -154 164 -198 22 -49 38 -63 113
-100 75 -37 159 -143 181 -229 9 -31 26 -76 40 -99 14 -24 25 -49 25 -57 1 -8
14 -32 30 -54 16 -22 40 -60 52 -85 13 -24 30 -52 39 -61 9 -9 29 -48 44 -88
l28 -72 -32 -64 c-17 -36 -36 -65 -41 -65 -9 0 -17 -16 -56 -110 -10 -25 -43
-71 -74 -104 -109 -115 -160 -149 -290 -191 -30 -10 -59 -21 -65 -26 -5 -4
-29 -12 -52 -18 -24 -7 -43 -15 -43 -19 0 -8 -23 -21 -130 -72 -115 -55 -165
-82 -168 -90 -8 -22 -135 -70 -252 -95 -120 -26 -181 -64 -201 -123 -7 -20
-18 -42 -25 -50 -8 -7 -17 -19 -21 -26 -12 -20 -135 -79 -228 -109 -97 -32
-148 -44 -285 -63 -58 -8 -150 -26 -205 -39 -107 -26 -224 -47 -370 -65 -49
-6 -142 -20 -205 -31 -309 -51 -341 -53 -1085 -75 -237 -7 -445 3 -618 30 -51
8 -128 18 -172 21 -44 4 -125 18 -180 30 -67 16 -149 25 -250 30 -174 7 -290
32 -393 84 -27 13 -68 20 -157 24 -138 6 -214 27 -365 101 -102 50 -134 79
-149 133 -14 48 -80 106 -159 139 -37 15 -74 33 -82 39 -8 7 -44 22 -80 35
-36 12 -101 35 -145 50 -131 45 -225 100 -374 218 -30 24 -78 71 -183 179 -18
18 -46 39 -62 47 -17 8 -53 41 -79 73 -27 31 -62 65 -77 75 -16 9 -36 31 -45
49 -23 43 -73 97 -99 105 -51 16 -179 138 -201 191 -7 17 -31 56 -52 85 -21
29 -45 67 -53 83 -8 17 -18 32 -21 35 -8 7 -39 101 -39 120 0 22 -59 77 -92
85 -17 4 -43 28 -70 63 -23 32 -51 66 -63 77 -12 11 -34 37 -49 58 -16 20 -44
54 -63 75 -42 45 -119 173 -157 262 -22 51 -31 95 -42 205 -14 139 -40 247
-71 295 -18 27 -66 123 -78 155 -4 11 -13 70 -21 130 -29 234 -62 314 -135
330 -48 11 -109 105 -149 229 -19 60 -40 250 -40 366 0 131 -15 312 -34 410
-25 127 -36 205 -36 251 0 24 -6 103 -14 174 -40 357 -46 729 -16 1030 11 110
24 268 30 350 12 168 22 264 38 345 6 30 16 138 22 240 6 101 16 193 22 203
13 25 38 179 38 237 0 25 12 77 25 115 14 39 25 70 25 71 0 0 21 16 48 34 115
83 134 111 147 220 18 150 69 304 120 360 8 9 23 41 34 71 11 30 31 86 46 124
29 76 41 139 54 285 6 80 12 103 37 140 15 25 39 54 53 65 50 42 111 107 111
119 0 7 16 28 36 47 20 18 44 50 54 70 20 38 68 84 116 110 28 14 49 49 89
147 10 23 22 42 27 42 4 0 8 5 8 11 0 13 64 102 97 135 13 13 23 30 23 38 0 8
11 28 25 44 14 16 38 54 53 84 36 67 68 105 106 125 46 24 186 174 193 207 8
37 67 96 96 96 28 0 98 37 115 61 7 10 32 27 55 38 39 18 99 74 327 307 95 97
159 139 256 169 42 13 96 38 120 54 23 17 45 31 49 31 7 0 69 45 99 72 10 9
31 20 47 23 15 3 53 24 84 46 31 21 59 39 64 39 4 0 28 15 52 34 49 38 188 86
247 86 20 0 53 5 72 10 19 6 58 15 86 20 45 7 148 48 207 81 23 13 133 26 282
34 66 3 167 15 225 25 65 12 180 21 300 25 107 3 215 10 240 14 89 17 320 12
470 -10z m-70490 -109 c646 0 1184 0 1195 0 11 0 182 0 380 0 l360 0 62 -29
c55 -26 64 -35 87 -83 l25 -53 1 -4565 c0 -2535 4 -4602 9 -4648 6 -56 15 -93
28 -110 10 -15 29 -47 42 -72 27 -53 46 -72 86 -87 81 -30 161 -43 290 -47 88
-3 161 -11 195 -21 30 -9 89 -23 130 -30 41 -7 95 -20 120 -29 25 -8 74 -19
110 -25 36 -5 81 -13 101 -16 40 -6 155 -78 170 -106 5 -11 9 -252 10 -592 1
-467 -1 -578 -12 -596 -19 -31 -110 -72 -178 -80 -31 -3 -670 -4 -1421 -1
-1106 4 -1368 7 -1380 18 -8 7 -30 22 -48 33 -41 24 -44 33 -87 246 -19 97
-39 181 -44 187 -12 15 -37 81 -51 133 -6 23 -21 55 -34 70 -13 15 -31 55 -41
88 -18 62 -19 121 -10 420 5 166 -4 208 -58 263 -22 23 -46 42 -52 42 -5 0
-26 -24 -45 -52 -19 -29 -43 -59 -52 -67 -10 -9 -18 -21 -18 -28 0 -7 -15 -30
-33 -50 -32 -36 -67 -100 -67 -121 0 -6 -11 -33 -25 -60 -14 -28 -25 -59 -25
-69 0 -70 -174 -234 -273 -257 -16 -4 -72 -27 -124 -52 -83 -40 -108 -58 -190
-140 -52 -52 -106 -102 -121 -111 -15 -10 -51 -37 -80 -60 -29 -24 -59 -43
-67 -43 -20 0 -73 -48 -100 -90 -18 -28 -45 -48 -106 -79 -45 -22 -88 -41 -96
-41 -12 0 -204 -91 -263 -124 -141 -81 -225 -103 -415 -109 -122 -4 -161 -9
-210 -27 -126 -46 -218 -60 -475 -71 -316 -12 -528 -11 -683 6 -76 8 -142 17
-146 19 -4 3 -95 10 -203 15 -108 6 -227 17 -265 25 -37 7 -111 19 -163 25
-118 15 -210 38 -277 68 -28 13 -56 23 -62 23 -6 0 -33 13 -59 30 -27 16 -53
30 -58 30 -5 0 -52 21 -104 46 -52 26 -114 56 -137 67 -24 11 -43 23 -43 27 0
5 -11 11 -25 14 -13 3 -37 23 -52 43 -34 44 -83 93 -94 93 -8 0 -67 26 -176
77 -29 13 -71 40 -94 59 -22 19 -44 34 -47 34 -4 0 -18 17 -32 37 -34 50 -67
80 -114 105 -22 11 -46 26 -53 33 -21 22 -76 52 -118 65 -87 28 -212 162 -234
252 -7 29 -23 73 -36 98 -12 25 -34 70 -48 101 -14 31 -33 62 -42 69 -8 7 -15
18 -15 24 0 7 -21 37 -47 67 -25 30 -52 69 -60 87 -7 18 -22 42 -32 55 -63 73
-98 120 -112 149 -28 55 -49 105 -49 115 0 14 -51 68 -76 81 -33 18 -85 117
-112 217 -52 194 -61 240 -62 321 0 91 -15 172 -38 204 -27 38 -82 185 -82
220 0 17 -4 50 -10 73 -5 23 -17 139 -25 257 -8 118 -22 253 -29 300 -8 47
-19 155 -26 240 -6 85 -17 184 -25 220 -12 55 -14 469 -15 2799 0 2094 -3
2741 -12 2761 -6 15 -32 40 -56 55 -66 42 -149 60 -381 84 -57 6 -109 15 -115
21 -7 5 -30 13 -51 19 -22 5 -74 19 -115 31 -49 14 -135 26 -250 35 -96 7
-188 17 -205 23 -16 5 -48 15 -71 22 -44 13 -49 22 -79 135 -13 51 -15 139
-15 572 l0 511 30 60 c21 42 37 62 57 69 95 34 146 43 253 44 149 1 1795 4
2460 4 593 0 558 5 606 -92 l29 -58 2 -3490 c1 -1919 4 -3521 6 -3560 3 -38
12 -97 21 -131 9 -33 20 -141 26 -240 6 -98 15 -197 20 -219 6 -22 17 -78 25
-125 8 -47 24 -123 34 -170 10 -47 29 -141 42 -209 14 -76 32 -137 44 -155 32
-49 72 -155 85 -226 6 -36 15 -78 20 -95 5 -16 13 -48 19 -71 6 -22 20 -52 32
-65 11 -13 27 -35 34 -49 8 -14 31 -41 51 -60 20 -19 47 -52 61 -73 14 -22 39
-44 61 -54 20 -9 47 -20 59 -26 11 -5 58 -39 102 -75 67 -54 87 -77 111 -128
34 -70 75 -111 146 -143 27 -12 72 -33 99 -46 28 -13 68 -26 90 -30 22 -4 78
-15 125 -25 47 -10 110 -23 140 -29 30 -5 89 -17 130 -25 74 -15 701 -42 731
-31 8 2 93 9 189 14 350 20 545 44 611 78 26 12 52 23 59 23 6 0 26 11 45 25
36 28 223 125 241 125 5 0 25 11 44 25 19 14 71 36 116 50 45 14 87 32 94 40
7 8 21 15 32 15 26 0 89 33 113 60 11 12 36 30 56 41 20 10 49 34 65 54 82
103 212 215 249 215 7 0 15 4 17 10 2 5 30 19 63 30 91 31 124 52 148 90 12
19 36 50 54 67 18 18 39 54 46 81 22 72 35 91 166 241 11 12 25 39 32 60 6 20
22 59 35 88 13 28 24 56 24 61 0 6 18 47 40 92 65 130 74 179 66 363 -3 86 -7
1490 -9 3118 l-2 2961 -23 18 c-12 10 -46 26 -75 36 -28 9 -57 20 -63 25 -9 7
-70 20 -329 69 -27 5 -95 12 -150 15 -99 6 -212 25 -270 44 -31 11 -255 46
-382 61 -106 13 -150 42 -189 124 l-23 49 6 531 c5 514 6 532 26 566 36 60 78
108 106 119 34 14 131 30 156 26 11 -2 549 -4 1195 -5z m22507 -4 c457 -2 439
0 469 -59 46 -88 44 169 44 -4742 l0 -4620 27 -79 c31 -86 40 -94 123 -102 25
-2 79 -11 120 -19 41 -8 136 -22 210 -30 74 -8 198 -28 275 -45 77 -16 217
-39 310 -50 94 -11 186 -24 205 -29 19 -5 69 -17 111 -25 110 -22 180 -51 218
-90 l32 -33 0 -524 c-1 -700 2 -686 -161 -722 -69 -16 -267 -17 -2541 -18
-2251 0 -2471 1 -2525 16 -74 21 -101 34 -110 54 -25 58 -35 224 -41 687 l-5
491 28 49 c16 27 37 56 48 65 12 10 84 26 195 43 97 15 223 36 281 48 58 11
164 24 235 29 72 4 168 13 215 19 47 5 155 17 242 25 154 15 267 41 316 73 14
9 31 30 39 47 8 16 24 46 34 65 18 32 20 52 17 205 -3 235 -4 7153 0 7396 l3
197 -41 32 c-36 28 -59 36 -173 57 -73 14 -208 33 -302 42 -93 10 -181 22
-195 29 -67 30 -268 61 -440 67 -277 9 -412 28 -444 64 -8 9 -24 52 -36 96
-21 78 -21 95 -20 598 l1 518 27 52 c34 64 42 70 122 99 l65 23 1254 2 c690 2
1257 5 1260 8 3 3 23 3 45 0 23 -3 231 -7 463 -9z m109529 -28 c24 -17 47 -42
52 -57 30 -78 31 -95 22 -314 -13 -296 -5 -9018 8 -9068 5 -20 20 -55 32 -77
20 -35 30 -42 89 -60 38 -12 124 -25 201 -31 74 -6 160 -18 190 -26 31 -9 126
-20 215 -25 121 -7 183 -15 255 -35 72 -20 127 -27 230 -31 130 -5 258 -24
310 -46 14 -6 45 -33 70 -60 l45 -50 0 -582 c0 -319 -3 -593 -8 -608 -5 -19
-24 -36 -65 -58 l-57 -31 -225 1 c-124 1 -1270 1 -2547 1 l-2323 -1 -55 31
c-30 17 -55 32 -55 34 0 1 -9 38 -20 81 -10 44 -23 135 -28 204 -10 143 -8
865 3 900 10 30 50 71 105 105 41 26 56 29 190 37 80 5 156 14 170 19 128 55
355 89 594 89 123 0 149 4 272 41 17 5 54 9 83 9 81 0 122 27 171 110 l41 71
8 222 c5 122 7 225 4 229 -2 4 -3 388 -3 855 1 466 0 1971 -1 3343 -2 2937 -3
2511 6 2765 9 253 -1 360 -37 387 -13 10 -40 32 -61 49 -20 17 -52 35 -70 40
-17 6 -151 14 -296 20 -171 6 -280 14 -310 23 -106 33 -313 75 -411 85 -357
37 -390 49 -438 156 l-26 60 -1 530 0 530 30 54 c23 42 42 61 80 83 l50 27
1735 0 1734 -1 42 -30z"/>
<path d="M86730 62140 c-92 -12 -237 -57 -296 -90 -59 -34 -78 -57 -89 -107
-3 -17 -13 -37 -21 -44 -8 -6 -14 -16 -14 -21 0 -5 -6 -15 -12 -22 -51 -52
-155 -173 -169 -195 -9 -14 -28 -37 -43 -51 -59 -54 -76 -97 -102 -255 -12
-74 -14 -142 -7 -380 4 -159 7 -299 6 -310 -5 -69 -3 -7362 2 -7415 4 -36 12
-74 17 -84 16 -30 58 -62 124 -97 60 -31 74 -49 89 -114 11 -51 87 -177 136
-225 118 -117 122 -120 190 -131 35 -5 106 -17 157 -26 132 -22 329 -15 396
15 27 12 56 22 65 22 21 0 221 101 257 129 15 12 31 21 37 21 6 0 27 11 47 25
19 13 70 33 113 44 118 29 167 59 199 120 39 74 46 83 133 160 78 70 193 136
264 152 20 5 74 17 121 27 47 10 111 31 142 45 31 15 61 27 66 27 5 0 27 17
49 38 21 20 51 44 67 52 16 8 50 34 75 57 25 23 69 57 97 75 29 18 69 56 90
86 77 106 122 142 179 142 22 0 68 16 117 41 10 5 24 9 31 9 19 0 103 45 129
70 12 11 27 20 34 20 7 0 35 18 64 41 28 22 67 47 85 55 19 7 36 18 40 24 12
19 174 85 234 95 70 12 171 53 220 90 25 19 76 55 114 80 56 37 71 54 91 98
37 83 95 129 216 171 30 10 60 22 65 26 6 4 35 13 65 20 30 7 71 24 90 36 19
13 39 24 45 24 6 0 40 18 77 39 37 22 82 44 100 50 18 7 49 28 68 47 19 20 49
43 65 51 17 8 37 21 45 28 8 6 33 19 55 28 22 8 74 31 116 51 42 20 86 36 98
36 12 0 29 4 39 9 9 4 31 15 47 23 17 9 46 21 66 27 45 14 83 55 99 104 7 24
28 51 57 75 25 20 68 55 94 77 98 80 115 93 189 134 43 25 105 49 145 58 38 9
90 27 114 40 24 12 50 23 57 23 6 0 34 11 61 23 193 94 225 112 295 170 26 21
61 42 80 48 18 5 49 25 68 44 81 82 95 95 103 95 4 0 36 24 70 53 34 28 75 61
91 72 15 11 44 32 63 47 19 15 44 30 56 34 12 4 40 19 62 34 22 15 62 35 89
44 44 15 217 87 255 106 9 4 39 15 66 23 83 26 169 60 195 78 14 9 43 27 65
39 79 43 124 85 149 137 14 28 26 56 26 62 0 28 90 137 153 186 22 17 28 33
37 95 11 80 14 84 95 137 21 14 53 39 70 54 l30 29 0 143 c0 158 -1 163 -71
230 -194 187 -255 243 -289 271 -131 102 -209 194 -274 325 -19 37 -40 65 -52
68 -10 3 -19 9 -19 13 0 12 -71 38 -135 51 -33 6 -76 18 -95 26 -98 41 -150
68 -150 75 0 5 -12 13 -27 19 -16 6 -51 21 -79 34 -28 13 -77 34 -109 46 -32
12 -74 37 -95 55 -21 19 -42 34 -47 34 -6 0 -25 16 -42 37 -28 33 -42 39 -144
64 -61 16 -119 29 -127 29 -75 2 -173 82 -215 178 -43 97 -49 106 -100 135
-28 15 -57 30 -65 33 -71 30 -184 72 -280 104 -264 87 -293 103 -416 223 -77
76 -136 107 -264 137 -108 26 -191 57 -217 81 -12 12 -29 41 -37 65 -22 65
-79 114 -178 154 -36 15 -135 92 -219 172 -44 41 -63 49 -210 82 -107 24 -206
66 -269 114 -52 40 -170 99 -237 118 -74 21 -156 59 -175 81 -8 10 -26 37 -40
61 -14 24 -58 79 -99 124 -76 83 -76 82 -274 172 -43 20 -86 43 -95 50 -16 14
-192 66 -225 66 -23 0 -162 42 -192 58 -23 12 -83 71 -114 111 -11 14 -39 46
-62 71 -23 25 -56 63 -72 85 -44 60 -55 69 -115 101 -30 16 -57 31 -60 34 -14
15 -66 43 -103 55 -42 14 -140 49 -269 98 -36 13 -86 36 -110 50 -24 15 -59
34 -77 44 -19 10 -45 28 -58 39 -22 21 -209 74 -257 74 -59 0 -214 148 -236
224 -25 90 -84 128 -265 174 -128 32 -264 44 -355 32z"/>
<path d="M114690 10397 c-47 -4 -128 -14 -180 -22 -52 -8 -169 -19 -260 -25
-249 -16 -477 -38 -552 -54 -80 -17 -155 -65 -217 -136 -28 -34 -62 -59 -97
-75 -30 -13 -69 -35 -87 -49 -19 -14 -38 -26 -44 -26 -5 0 -30 -13 -54 -30
-25 -16 -69 -33 -99 -39 -122 -21 -217 -44 -250 -61 -19 -9 -51 -24 -72 -33
-20 -9 -49 -32 -65 -52 -15 -21 -58 -68 -95 -106 -37 -38 -70 -79 -74 -92 -4
-12 -17 -34 -29 -49 -13 -15 -35 -59 -50 -97 -25 -67 -63 -111 -94 -111 -13 0
-56 -26 -89 -55 -25 -21 -75 -105 -87 -145 -4 -14 -13 -32 -20 -40 -6 -8 -17
-51 -24 -94 -6 -44 -18 -87 -26 -96 -28 -31 -63 -164 -74 -285 -25 -276 -25
-279 14 -469 19 -96 35 -191 35 -210 0 -47 26 -168 45 -208 8 -18 40 -66 70
-107 46 -62 66 -80 125 -110 38 -20 89 -53 114 -74 67 -57 157 -116 196 -129
57 -18 78 -37 96 -86 9 -26 21 -58 28 -71 15 -32 101 -96 151 -111 22 -7 56
-19 75 -26 19 -8 100 -18 180 -23 90 -5 158 -14 180 -24 83 -36 140 -41 480
-41 336 0 426 7 510 40 47 18 84 24 220 34 143 11 226 26 265 48 17 10 52 26
80 37 90 34 154 73 208 129 56 57 88 71 247 106 109 24 228 72 237 96 2 7 19
18 36 25 18 7 52 27 77 44 25 17 66 41 93 54 26 13 47 26 47 30 0 12 200 110
248 122 31 7 62 27 105 67 34 32 77 68 94 80 22 16 36 36 43 65 18 68 31 97
67 139 18 22 33 43 33 46 0 4 13 22 29 41 16 19 43 62 59 95 28 57 128 168
190 212 25 17 36 40 59 119 20 73 23 162 10 320 -8 94 -9 203 -4 325 6 146 4
441 -5 745 -1 11 1 70 2 130 2 72 -1 125 -10 153 -14 46 -97 137 -140 154 -30
12 -1820 17 -1950 5z"/>
<path d="M66085 10388 c-232 -33 -489 -57 -619 -58 -55 0 -127 -4 -160 -9 -34
-6 -97 -15 -141 -22 -105 -16 -145 -34 -178 -80 -30 -41 -141 -129 -163 -129
-15 0 -84 -37 -141 -75 -19 -14 -40 -25 -46 -25 -6 0 -20 -9 -31 -19 -27 -25
-156 -68 -238 -80 -91 -13 -209 -50 -235 -73 -12 -11 -27 -34 -34 -51 -14 -36
-55 -95 -80 -117 -55 -48 -118 -152 -148 -244 -17 -53 -42 -115 -56 -136 -14
-22 -25 -42 -25 -44 0 -3 -19 -33 -43 -68 -49 -71 -81 -130 -90 -170 -4 -15
-27 -41 -56 -62 -73 -54 -96 -114 -117 -306 -25 -229 -27 -299 -14 -365 15
-75 16 -83 31 -233 14 -142 28 -171 116 -243 29 -23 76 -75 105 -115 29 -41
56 -74 60 -74 4 0 8 -6 8 -13 0 -8 9 -22 21 -33 12 -10 30 -36 41 -57 27 -54
123 -143 187 -173 61 -29 94 -63 111 -115 16 -47 99 -104 167 -113 51 -8 65
-12 183 -50 41 -14 104 -30 140 -35 36 -6 87 -18 113 -26 26 -8 128 -19 225
-25 97 -6 215 -17 262 -25 58 -9 101 -10 135 -4 28 5 91 13 140 19 225 24 276
30 370 45 181 27 338 62 489 107 90 27 105 35 156 84 58 56 166 116 230 129
40 8 180 76 254 124 28 17 54 31 58 31 4 0 30 16 57 35 26 19 63 42 82 50 19
8 45 24 59 35 14 11 48 26 75 34 71 20 189 62 222 80 15 8 48 40 73 71 25 31
62 78 83 103 20 26 37 53 37 61 0 17 59 121 68 121 4 0 14 14 21 32 17 38 53
89 119 172 44 55 80 81 158 113 17 7 43 26 60 41 16 16 45 38 65 50 49 29 87
110 100 211 7 61 14 1153 9 1511 -2 142 -35 202 -118 215 -25 4 -492 8 -1036
9 -923 3 -1000 2 -1121 -16z"/>
<path d="M103080 15125 c-36 -7 -109 -13 -163 -14 -95 -1 -102 -3 -190 -45
-98 -47 -111 -50 -257 -66 -115 -13 -184 -43 -256 -110 -28 -27 -74 -62 -102
-80 -45 -27 -54 -39 -76 -98 -15 -37 -41 -86 -59 -109 -17 -23 -40 -54 -50
-67 -10 -15 -35 -30 -60 -36 -23 -6 -62 -19 -87 -30 -25 -10 -62 -21 -82 -25
-21 -4 -49 -17 -63 -29 -33 -29 -88 -115 -110 -174 -20 -52 -70 -128 -122
-182 -18 -20 -42 -63 -54 -95 -11 -33 -27 -72 -36 -88 -8 -16 -20 -49 -28 -73
-7 -24 -27 -66 -44 -94 -17 -28 -31 -57 -31 -65 0 -29 -61 -85 -106 -96 -48
-12 -97 -59 -126 -121 -17 -36 -38 -137 -38 -184 0 -39 -47 -210 -70 -254 -50
-97 -130 -486 -130 -635 0 -102 12 -151 40 -160 10 -3 35 -19 56 -36 31 -25
45 -29 74 -25 51 8 73 8 2528 7 2433 -1 2342 -3 2399 51 25 23 25 23 21 178
-5 136 -8 164 -32 230 -63 175 -77 247 -87 435 -6 99 -19 225 -30 280 -21 109
-15 100 -137 203 -42 35 -61 62 -106 156 -31 63 -56 125 -56 138 0 13 -4 28
-8 33 -5 6 -17 37 -26 70 -25 86 -37 118 -53 136 -7 8 -13 18 -13 21 0 4 -20
39 -45 80 -25 40 -52 89 -61 108 -9 19 -31 53 -49 75 -17 22 -39 54 -48 70
-22 44 -197 218 -246 246 -25 14 -51 38 -61 59 -10 19 -52 70 -93 113 l-76 77
-78 0 c-69 0 -84 3 -113 25 -19 14 -39 25 -45 25 -5 0 -27 9 -47 20 -47 25
-165 59 -244 70 -34 5 -87 18 -118 29 -164 57 -719 92 -906 56z"/>
<path d="M168730 15111 c-51 -5 -101 -17 -155 -40 -124 -51 -140 -53 -415 -71
-135 -9 -194 -18 -256 -37 -83 -26 -82 -25 -250 -170 -26 -22 -46 -50 -55 -77
-15 -49 -37 -75 -109 -130 -57 -44 -198 -117 -263 -136 -21 -7 -58 -29 -82
-50 -25 -21 -53 -41 -64 -45 -19 -6 -91 -91 -91 -107 0 -5 -27 -42 -61 -81
-64 -76 -119 -176 -119 -216 0 -37 -58 -216 -79 -242 -10 -13 -26 -39 -35 -57
-10 -19 -32 -53 -50 -76 -18 -23 -38 -56 -45 -73 -14 -33 -72 -78 -115 -89
-58 -14 -86 -76 -121 -262 -14 -75 -30 -148 -36 -162 -41 -96 -119 -473 -119
-581 -1 -64 -15 -149 -96 -564 -7 -38 -16 -155 -19 -260 -3 -104 -13 -254 -21
-331 -13 -111 -15 -215 -11 -485 3 -189 10 -396 15 -459 6 -63 13 -230 17
-370 6 -242 16 -355 35 -391 5 -9 14 -49 19 -90 50 -365 76 -481 136 -605 38
-79 47 -113 70 -254 17 -99 48 -193 75 -221 8 -9 46 -31 85 -48 90 -41 163
-117 211 -221 53 -113 60 -131 73 -184 6 -27 20 -60 31 -73 10 -13 21 -37 25
-52 6 -28 212 -251 232 -251 5 0 31 -20 57 -45 26 -24 64 -49 84 -55 46 -14
198 -90 220 -110 9 -8 44 -27 77 -41 50 -20 65 -33 91 -74 46 -73 85 -107 156
-136 81 -35 227 -79 259 -79 13 0 44 -10 69 -21 132 -61 190 -71 505 -81 381
-13 412 -13 670 0 265 13 388 32 468 72 31 17 62 30 67 30 5 0 42 20 82 45 40
25 77 45 83 45 15 0 67 58 85 92 29 59 88 100 179 125 47 13 95 28 106 32 11
5 48 19 82 31 34 12 68 29 74 37 7 7 30 22 52 32 21 10 91 67 154 126 63 60
133 122 156 138 23 17 44 33 47 36 8 9 42 29 76 45 17 7 48 25 71 39 36 23 42
32 63 109 52 183 80 237 177 336 56 58 69 79 88 146 15 51 16 273 16 2595 l1
2538 -30 70 c-16 38 -43 84 -60 103 -17 18 -36 47 -42 64 -7 17 -22 58 -35 91
-12 33 -29 80 -36 105 -7 25 -21 51 -30 57 -9 7 -31 37 -48 68 -32 56 -85 94
-133 96 -13 0 -39 11 -58 25 -19 13 -53 36 -75 51 -22 14 -42 29 -45 32 -3 4
-21 18 -40 31 -46 32 -47 33 -102 79 -59 49 -178 181 -178 197 0 6 -6 17 -14
23 -8 7 -18 26 -21 42 -16 74 -72 106 -265 154 -79 20 -177 62 -184 80 -2 7
-22 18 -43 25 -21 6 -51 18 -68 25 -27 13 -169 44 -265 59 -19 3 -96 8 -170
11 -237 9 -335 17 -352 26 -51 27 -260 49 -378 40z"/>
<path d="M85125 15129 c-22 -4 -100 -11 -174 -15 l-133 -7 -77 -44 c-42 -24
-85 -45 -96 -48 -11 -2 -70 -15 -132 -29 -61 -14 -117 -26 -125 -26 -7 0 -31
-14 -52 -30 -22 -17 -44 -30 -50 -30 -6 0 -35 -22 -63 -48 -29 -26 -66 -57
-83 -70 -18 -14 -34 -40 -42 -65 -6 -23 -22 -59 -35 -79 -21 -34 -77 -98 -86
-98 -2 0 -20 -15 -40 -34 -20 -19 -60 -42 -89 -51 -29 -10 -69 -32 -88 -50
-19 -18 -53 -42 -75 -53 -22 -11 -53 -37 -70 -57 -16 -21 -58 -65 -92 -99 -52
-52 -65 -72 -86 -136 -14 -41 -28 -95 -31 -120 -3 -25 -14 -74 -26 -109 -11
-35 -20 -69 -20 -75 0 -6 -14 -27 -30 -46 -16 -19 -30 -38 -30 -42 0 -3 -20
-29 -43 -57 -24 -28 -49 -69 -56 -91 -13 -43 -65 -110 -86 -110 -18 0 -65 -39
-76 -64 -6 -11 -19 -37 -30 -56 -10 -19 -19 -47 -19 -62 0 -35 -59 -270 -71
-282 -5 -6 -9 -18 -9 -27 0 -10 -15 -46 -34 -82 -19 -36 -38 -81 -41 -101 -4
-20 -11 -39 -16 -42 -5 -3 -9 -40 -9 -82 0 -42 -7 -140 -15 -217 -8 -77 -15
-146 -15 -152 0 -7 19 -33 43 -58 l44 -45 2467 0 c1521 0 2474 4 2485 9 10 6
30 28 45 50 27 38 28 44 28 163 -1 68 -8 158 -16 203 -9 44 -16 110 -16 147 0
81 -14 153 -44 233 -57 148 -68 197 -73 335 -3 85 -10 147 -19 167 -8 17 -14
38 -14 46 0 17 -46 87 -69 104 -9 7 -28 15 -42 18 -28 6 -97 75 -122 122 -19
35 -64 184 -71 238 -3 21 -14 51 -24 65 -10 14 -25 43 -33 65 -7 22 -18 47
-25 55 -7 8 -28 51 -48 95 -31 67 -45 85 -84 112 -26 18 -57 41 -68 51 -27 26
-124 92 -135 92 -4 0 -19 16 -32 35 -13 19 -49 53 -81 76 -38 27 -64 56 -80
87 -25 49 -38 63 -118 133 -41 35 -59 43 -121 54 -45 8 -87 22 -111 39 -21 14
-44 26 -51 26 -7 0 -25 10 -40 21 -31 25 -113 46 -234 59 -45 6 -124 21 -175
34 -162 44 -364 66 -584 65 -108 -1 -215 -5 -237 -10z"/>
</g>
</svg>
